<?xml version="1.0" encoding="utf-8"?><svg width="18" height="15" fill="none" xmlns="http://www.w3.org/2000/svg" viewBox="0 0 18 15"><path d="M16.137 3.75c.023.096.035.252.035.469 0 1.274-.235 2.548-.703 3.822a12.17 12.17 0 01-2.004 3.461c-.844 1.034-1.945 1.875-3.305 2.524-1.36.65-2.86.974-4.5.974-2.062 0-3.95-.565-5.66-1.695.258.024.55.036.879.036 1.71 0 3.246-.54 4.605-1.622-.82 0-1.546-.24-2.18-.721A3.914 3.914 0 012.04 9.123c.234.024.457.036.668.036.328 0 .656-.036.984-.109a3.547 3.547 0 01-1.511-.72A3.988 3.988 0 011.125 7.03a3.817 3.817 0 01-.387-1.694v-.073c.516.313 1.067.481 1.653.505C1.289 5 .738 3.942.738 2.596c0-.673.176-1.31.528-1.91a10.295 10.295 0 003.34 2.812A10.143 10.143 0 008.858 4.65a5.386 5.386 0 01-.07-.865c0-1.034.352-1.923 1.055-2.668C10.57.373 11.438 0 12.445 0c1.078 0 1.98.397 2.707 1.19a7.395 7.395 0 002.356-.902A3.742 3.742 0 0115.89 2.38 7.777 7.777 0 0018 1.767a8.232 8.232 0 01-1.863 1.983z" fill="#999"/></svg>