<?xml version="1.0" encoding="utf-8"?><svg width="20" height="13" fill="none" xmlns="http://www.w3.org/2000/svg" viewBox="0 0 20 13"><path d="M19.145 2.031c.07.271.127.61.174 1.016.07.406.116.812.139 1.219a18 18 0 01.035 1.083c.023.338.034.62.034.846V6.5c0 2.031-.127 3.532-.382 4.503a2.35 2.35 0 01-.627 1.015 2.428 2.428 0 01-1.079.61c-.44.113-1.276.203-2.505.27-1.23.046-2.355.08-3.375.102h-1.532c-3.967 0-6.437-.124-7.412-.372-.905-.249-1.473-.79-1.705-1.625-.116-.43-.209-1.016-.278-1.76C.585 8.474.55 7.831.527 7.312V6.5c0-2.009.128-3.498.383-4.469.116-.406.325-.756.626-1.05a2.428 2.428 0 011.08-.609C3.055.26 3.89.181 5.12.135 6.35.068 7.475.023 8.496 0h1.531c3.967 0 6.438.124 7.412.372.418.113.778.316 1.08.61.3.293.51.643.626 1.05zM8.079 9.276L13.055 6.5 8.079 3.758v5.518z" fill="#999"/></svg>