<?xml version="1.0" encoding="utf-8"?><svg width="20" height="11" fill="none" xmlns="http://www.w3.org/2000/svg" viewBox="0 0 20 11"><path d="M19.229.756c-.07.344-.353.905-.847 1.685-.47.779-.906 1.466-1.306 2.062-.4.573-.611.871-.635.894-.14.206-.211.355-.211.447 0 .091.07.252.211.481l.212.24.565.55c.211.207.447.447.705.723.26.275.494.55.706.824.235.253.435.516.6.791.188.275.318.504.388.688.165.572-.07.859-.706.859H16.83c-.164 0-.305-.023-.423-.069a1.506 1.506 0 01-.388-.24 2.99 2.99 0 01-.388-.379 19.754 19.754 0 00-.53-.584c-.235-.252-.47-.493-.705-.722-.941-.87-1.635-1.306-2.082-1.306-.283 0-.447.08-.494.24-.047.161-.07.62-.07 1.376.023.366.034.664.034.893 0 .275-.094.482-.282.62-.188.114-.6.171-1.235.171-1.106 0-2.223-.32-3.352-.963-1.13-.641-2.117-1.558-2.964-2.75A22.476 22.476 0 011.938 4.16C1.421 3.105 1.08 2.303.915 1.753.75 1.203.668.813.668.584.668.194.903 0 1.374 0h2.082c.258 0 .447.057.564.172.141.114.259.32.353.619.494 1.398 1.094 2.647 1.8 3.746.729 1.1 1.282 1.65 1.658 1.65.141 0 .235-.045.283-.137.07-.115.105-.32.105-.619v-2.99a2.695 2.695 0 00-.176-.825c-.094-.23-.188-.39-.282-.482L7.478.791a.606.606 0 01-.105-.31c0-.091.023-.172.07-.24A.622.622 0 017.62.069.64.64 0 017.902 0h3.282c.376 0 .564.252.564.756v3.988c0 .39.106.584.318.584.235 0 .564-.206.988-.619.447-.48.882-1.065 1.305-1.753.424-.687.741-1.26.953-1.718l.318-.654c.164-.39.458-.584.882-.584h2.082c.564 0 .776.252.635.756z" fill="#999"/></svg>