<?xml version="1.0" encoding="utf-8"?><svg width="12" height="18" fill="none" xmlns="http://www.w3.org/2000/svg" viewBox="0 0 12 18"><path d="M9.82 11.742c-.785.492-1.857.809-3.214.95l.75.738 2.715 2.672c.31.304.393.656.25 1.054-.143.422-.405.68-.786.774-.357.117-.714.047-1.072-.211l-2.75-2.707-2.716 2.672c-.31.304-.678.386-1.107.246-.405-.14-.667-.399-.786-.774-.095-.351 0-.703.286-1.054l2.715-2.707.75-.704c-1.405-.14-2.489-.457-3.25-.949-.644-.422-1.06-.762-1.251-1.02-.19-.28-.179-.632.035-1.054.143-.305.37-.492.68-.563.333-.093.75.024 1.25.352.095.07.238.164.428.281.19.117.572.27 1.144.457a6.032 6.032 0 001.821.282c.62 0 1.215-.082 1.787-.247.571-.164.976-.34 1.214-.527l.393-.246c.5-.328.905-.445 1.215-.352.333.07.584.258.75.563.072.258.12.457.143.598.024.14-.036.304-.178.492a3.092 3.092 0 01-.465.492c-.167.117-.417.281-.75.492zM1.069 4.57c0-1.265.453-2.343 1.358-3.234C3.33.446 4.426 0 5.712 0c.834 0 1.608.21 2.323.633a4.34 4.34 0 011.679 1.652c.428.68.643 1.442.643 2.285 0 1.242-.453 2.309-1.358 3.2-.905.89-2 1.335-3.287 1.335-1.286 0-2.381-.445-3.286-1.335-.905-.891-1.358-1.957-1.358-3.2zm2.358 0c0 .61.226 1.137.679 1.582.452.422.988.633 1.607.633.62 0 1.156-.21 1.608-.633C7.773 5.707 8 5.18 8 4.57c0-.633-.226-1.16-.679-1.582a2.215 2.215 0 00-1.608-.668c-.404 0-.785.106-1.143.317a2.17 2.17 0 00-.857.808 2.2 2.2 0 00-.286 1.125z" fill="#999"/></svg>