<?xml version="1.0" encoding="utf-8"?><svg width="74" height="74" fill="none" xmlns="http://www.w3.org/2000/svg" viewBox="0 0 74 74"><path fill-rule="evenodd" clip-rule="evenodd" d="M28.832 51.182L54.168 37 28.832 22.818v28.364zM55.07 38.58a1.807 1.807 0 000-3.16L29.734 21.237c-1.222-.683-2.734.191-2.734 1.58v28.365c0 1.39 1.512 2.264 2.734 1.58L55.069 38.58z" fill="#fff" fill-opacity=".7"/><path fill-rule="evenodd" clip-rule="evenodd" d="M37 72.15c19.413 0 35.15-15.737 35.15-35.15C72.15 17.587 56.413 1.85 37 1.85 17.587 1.85 1.85 17.587 1.85 37c0 19.413 15.737 35.15 35.15 35.15zM37 74c20.434 0 37-16.566 37-37S57.434 0 37 0 0 16.566 0 37s16.566 37 37 37z" fill="#fff" fill-opacity=".7"/></svg>