<?xml version="1.0" encoding="utf-8"?><svg width="20" height="20" fill="none" xmlns="http://www.w3.org/2000/svg" viewBox="0 0 20 20"><circle cx="10" cy="10" r="10" fill="#E5E5E5"/><path d="M10.102 5.06c.653 0 1.208.107 1.666.322.466.205.816.485 1.05.84.233.355.35.747.35 1.176 0 .383-.07.71-.21.98a2.1 2.1 0 01-.476.658 9.406 9.406 0 01-.742.588c-.373.252-.649.48-.826.686-.178.196-.266.453-.266.77v.35H8.632v-.434c0-.439.065-.807.196-1.106.14-.308.303-.546.49-.714.196-.177.439-.369.728-.574a3.6 3.6 0 00.616-.49.73.73 0 00.196-.518c0-.252-.089-.448-.266-.588-.168-.14-.406-.21-.714-.21-.588 0-1.134.285-1.638.854L6.826 6.558c.85-.999 1.941-1.498 3.276-1.498zm-.434 7.644c.345 0 .64.126.882.378.252.243.378.537.378.882 0 .355-.126.658-.378.91a1.201 1.201 0 01-.882.364c-.345 0-.644-.121-.896-.364a1.265 1.265 0 01-.364-.91c0-.345.121-.64.364-.882.252-.252.55-.378.896-.378z" fill="#999"/></svg>