<?xml version="1.0" encoding="utf-8"?><svg width="20" height="20" fill="none" xmlns="http://www.w3.org/2000/svg" viewBox="0 0 20 20"><path fill-rule="evenodd" clip-rule="evenodd" d="M13.047 12.15a7.329 7.329 0 00-.393-9.993C9.76-.72 5.066-.72 2.171 2.157a7.33 7.33 0 000 10.414c2.575 2.557 6.571 2.84 9.46.85l6.7 6.31c.382.359 1.001.359 1.383 0a.883.883 0 000-1.302l-6.667-6.28zM11.4 3.459a5.443 5.443 0 010 7.81c-2.202 2.157-5.772 2.157-7.974 0a5.443 5.443 0 010-7.81c2.202-2.157 5.772-2.157 7.974 0z" fill="#0C4DA2" fill-opacity=".4"/></svg>