<?xml version="1.0" encoding="utf-8"?><svg width="70" height="15" xmlns="http://www.w3.org/2000/svg" viewBox="0 0 116 15" fill="#fff"><path d="M113.8 13.1v-.6h.4c.2 0 .4 0 .4.3s-.2.3-.4.3h-.4zm0 .3h.3l.5.8h.3l-.5-.8c.3 0 .5-.2.5-.5 0-.4-.2-.5-.7-.5h-.7v1.9h.3v-.9zm.3 1.5c.9 0 1.6-.7 1.6-1.6 0-.9-.7-1.6-1.6-1.6s-1.6.7-1.6 1.6.8 1.6 1.6 1.6zm-1.3-1.7c0-.8.6-1.4 1.3-1.4.7 0 1.3.6 1.3 1.4 0 .8-.6 1.4-1.3 1.4s-1.3-.6-1.3-1.4zm-10.4 1.7l2.9-11.4h-4.9l-2.8 11.4h-7.8l2.9-11.4h-4.9l-3 11.4h-8.1L80.6 0s26.1-.1 28.9 0c1.7 0 4.1 1.7 3.3 5.1-1 4-1.7 7.4-2.3 9.8h-8.1zM66.8 6.8h-6.2l.9-3.6h6.1l-.8 3.6zM58.7 0c-1.3 0-4-.2-5.4 4.2-.7 2.3-2.9 10.7-2.9 10.7h3.9c1.8 0 3.7.1 4.3-1.1.5-1.1 1.2-3.9 1.2-3.9h6.4l-1.3 5H73C76.7.7 76.9 0 76.9 0H58.7zM11.4 3.2L10.7 6h13.1l-1.2 4.4c-.8 3.1-2.5 4.5-5.9 4.5H0l.8-3.1h13.4l.8-3.2H1.6L2 7c.2-.7.4-1.4.6-2.2C3.2 2.6 4.2.3 7.9.1h17.4l-.9 3.1h-13zm29.7 3.6h-6.2l1-3.6H42l-.9 3.6zM46.3 0H33c-4.7 0-5.3 3.8-5.5 4.2-.2.5-2.1 8.2-2.8 10.7h8.1l1.6-6c.2.2 3.3 4.1 4.3 5.2.8.9 1.4.8 4.4.8H48l-4.5-5.4h5c.3-1.5.8-3.2 1.2-4.8C50.4 2 48.3 0 46.3 0z"/></svg>