<?xml version="1.0" encoding="utf-8"?><svg xmlns="http://www.w3.org/2000/svg" width="59.3" viewBox="0 0 59.3 10" fill="#f30134" height="10"><path d="M27.2 7.3h2c.3-.5.6-.9.9-1.4h-2l1.5-2.4c1.4 2.2 2.8 4.4 4.1 6.5h2c-1.9-2.8-3.7-5.5-5.5-8.1H29c-.8 1-5.3 7.7-5.4 8.1h1.9c.6-1 1.2-1.8 1.7-2.7zm-5-4.9v3.9c0 1.3-.8 2.1-2.1 2.2h-1.9c-.3 0-.6 0-.9-.2-.8-.3-1.2-1-1.2-1.8V1.8c-.6 0-1.1-.1-1.6 0 0 .1-.1.1-.1.2 0 1.5-.1 2.9 0 4.4.1 2.1 1.6 3.5 3.7 3.5h2c2.1 0 3.7-1.5 3.7-3.7V2.1c0-.1 0-.2-.1-.4h-1.6v.7h.1zm22.1 4.4c1-.7 1.4-2 1.1-3.1-.4-1.2-1.4-1.9-2.7-1.9H36.4v8.1c.6 0 1.1.1 1.7 0V7.6 5.4 3.2h4.6c.5 0 1 .5 1 1v.5c0 .7-.5 1.1-1.1 1.1h-2.5c-.3.5-.6.9-1 1.4H42c.6.9 1.1 1.8 1.7 2.6h2c-.7-1-1.3-1.9-2-2.9.4 0 .5 0 .6-.1zm12.8-1.4c0-1.7-1.3-3.6-3.6-3.7h-3.1c-1.9 0-3.5 1.6-3.5 3.5v1.2c.1 1.7 1.2 3.1 2.9 3.4.6.1 1.2.1 1.6.1.5-.6 1-1 1.4-1.4h-2.3c-1-.1-1.8-.8-1.8-1.9V5.1c.1-1.2 1.1-1.9 2-1.9h3c1 0 1.7.6 1.9 1.6.1.6.1 1.3 0 1.9 0 .2-.1.4-.2.7-.4-.3-.8-.5-1.1-.7-.2-.2-.5-.2-.8-.2h-2.4c1.9 1.2 3.7 2.3 5.5 3.4h2.7v-.1c-.9-.5-1.7-1.1-2.6-1.6.4-.9.4-1.8.4-2.8zM14.6 9.9h-3.1C9.4 8.6 7.3 7.3 5.1 6v-.1H8c.2 0 .4.1.6.2.6.4 1.3.8 2 1.2.1-.3.1-.6.1-.8V3.4c0-1.2-.9-2-2-2h-5c-1.1 0-1.9.7-2 1.8v3.6c0 .9.7 1.5 1.6 1.7H8c-.6.5-1 1-1.5 1.4-1.1 0-2.2.1-3.2 0C1.5 9.8 0 8.2 0 6.3V3.5C0 1.5 1.6 0 3.5 0h5.3c2 0 3.5 1.6 3.5 3.5v2.9c0 .6-.2 1.2-.5 1.8 1.1.5 1.9 1.1 2.8 1.7 0-.1 0 0 0 0z"/></svg>