<?xml version="1.0" encoding="utf-8"?><svg xmlns="http://www.w3.org/2000/svg" width="100" height="30" viewBox="0 0 138.09 34.25"><path d="M62.09 17.09s1.39-1.53 2.62-2.83c1.59-1.72 2.16-3.04 2.16-5.76 0-2.7-.01-7.98-.01-7.98h-4.98s.01 5.22.01 7c0 2.66-.66 2.85-1.75 4.09-.82.92-1.45 1.54-1.45 1.54-.18.21-.35.4-.51.57V.53H53.2v33.13h4.98V20.41l.51.57 1.45 1.59c1.09 1.25 1.75 1.43 1.75 4.1v7h4.98s.01-5.28.01-7.99c0-2.7-.57-4.03-2.17-5.75l-2.62-2.84zm15.28-3.9c-.96-1.03-1.43-1.34-1.43-3.17V7.06c0-.94.7-1.7 1.59-1.7h.51c.87.01 1.6.77 1.6 1.71v5.75h4.98V7.08c0-3.9-2.95-7.04-6.57-7.04h-.51V.02c-3.64 0-6.57 3.15-6.57 7.05 0 0-.01.88-.01 3.51 0 2.62.55 3.84 1.74 5.15l5.51 5.36c.97 1.03 1.43 1.34 1.43 3.17 0 1.44.01 2.95.01 2.95-.01.94-.72 1.71-1.6 1.72h-.51c-.87-.02-1.6-.78-1.6-1.72l.01-5.74h-4.98v5.74c0 3.89 2.94 7.03 6.57 7.03h.51v.01h.01c3.63 0 6.56-3.15 6.56-7.04 0 0 .01-.88.01-3.5 0-2.63-.55-3.84-1.73-5.15l-5.53-5.37zM44.15 23.23v3.96c0 .94-.71 1.71-1.6 1.71h-.51c-.88 0-1.6-.77-1.6-1.71V7.04c0-.93.72-1.7 1.6-1.71h.51c.88.01 1.6.78 1.6 1.71v5.75h4.98l-.01-5.74C49.13 3.16 46.18.01 42.55 0h-.52c-3.63.01-6.57 3.15-6.57 7.05l-.01 20.14c.01 3.89 2.95 7.05 6.58 7.04v-.01h.51v.01c3.63.01 6.58-3.15 6.58-7.04v-3.95l-4.97-.01zm70.98 3.96c0 .94-.72 1.7-1.6 1.7h-.51c-.88 0-1.6-.76-1.6-1.7V7.04c0-.93.72-1.7 1.6-1.71h.51c.87.01 1.6.78 1.6 1.71v20.15zM113.54.01h-.52c-3.63 0-6.57 3.15-6.57 7.04l-.01 20.14c0 3.89 2.95 7.05 6.58 7.04v-.01h.51v.01c3.62.01 6.57-3.15 6.58-7.04V7.05c0-3.9-2.95-7.04-6.57-7.04zM26.42 27.19c0 .94-.72 1.7-1.6 1.7h-.51c-.88 0-1.6-.76-1.6-1.7V7.04c0-.93.72-1.7 1.6-1.71h.51c.87.01 1.6.78 1.6 1.71v20.15zM24.82.01h-.51c-3.62 0-6.57 3.15-6.56 7.04l-.01 20.14c.01 3.89 2.95 7.05 6.58 7.04v-.01h.51v.01c3.63.01 6.58-3.15 6.58-7.04l-.02-20.14c.01-3.9-2.94-7.04-6.57-7.04zm110.22 17.33l-.13-.12.13-.12s.86-.74 1.54-1.58c1.24-1.55 1.51-2.16 1.51-5.11 0-4.15-.01-9.86-.01-9.86l-4.98.01v9.69c0 1.16-.71 2.04-.96 2.42s-.63.67-.63.67l-.37.34-.38-.34s-.38-.3-.63-.67c-.24-.38-.96-1.26-.96-2.42V.56l-4.98-.01v9.86c0 2.95.27 3.56 1.51 5.11.67.84 1.53 1.58 1.53 1.58l.13.12-.13.12-1.53 1.6c-1.24 1.54-1.51 2.15-1.51 5.1v9.85l4.97-.01s.01-8.53.01-9.7.72-2.03.96-2.41l.63-.66.38-.35.37.35.63.66c.25.38.96 1.25.96 2.41v9.7l4.97.01v-9.85c0-2.95-.25-3.56-1.5-5.1l-1.53-1.6zm-37.65-2.89h-3.71V.56H88.7v33.1h4.98V19.78l3.71-.01-.01 13.89h4.98l.01-33.1h-4.98v13.89zM8.67 12.89c0 .94-.71 1.7-1.59 1.7h-2.1V5.72h2.1c.88 0 1.59.76 1.59 1.71v5.46zm2.72 4.19c1.39-1.29 2.26-3.18 2.26-5.31V7.56c0-3.88-2.94-7.03-6.57-7.03H0l.02 33.12 4.96.01V19.85h2.1c.89 0 1.6.77 1.59 1.71l.02 12.1h4.98l-.01-11.26c0-2.13-.87-4.04-2.27-5.32z"/></svg>