<?xml version="1.0" encoding="utf-8"?><svg xmlns="http://www.w3.org/2000/svg" width="67.6" viewBox="0 0 67.6 6.3" height="6.3"><path d="M24.8 1.2c-.4.4-.9.8-1.4 1.3-.8.8-1.6 1.5-2.4 2.3-.2.2-.5.4-.9.5-.1.1-.4.1-.6.2-.3.1-.7.1-1 .1-.1.1-.2.2-.3.2L18 6c-.1.1-.2.1-.2.3h8.8c.3-.2.5-.5.8-.7h-.2c-.2 0-.5 0-.7-.1-.1 0-.2 0-.2-.1s.1-.2.1-.3l.8-.8c1-.9 2-1.9 3-2.8.4-.3.8-.5 1.2-.6.4-.1.8-.1 1.2-.2.2-.2.5-.5.8-.7h-8.8c-.4.3-.6.5-.9.8h.2c.2 0 .5 0 .7.1.1 0 .2 0 .3.1 0 .1 0 .2-.1.2zm13.4 1.7c.5-.5 1-1 1.5-1.4.1-.1.1-.1.2-.1.6-.1 1.2-.2 1.8-.2.9-.1 1.8-.1 2.8-.2H47c-3 .8-6.1 1.5-9.1 2.3.1-.2.2-.3.3-.4zm-.7.8h2.9c.9 0 1.9 0 2.8-.1.8 0 1.6-.1 2.4-.2.8-.1 1.6-.3 2.3-.5.6-.2 1.1-.4 1.6-.7.2-.2.4-.3.6-.6.2-.3.1-.6-.2-.9-.1-.1-.3-.2-.5-.2-.5-.2-1.1-.2-1.6-.3-.9-.1-1.8-.1-2.6-.1H34.3l-.8.8h.8c.1 0 .1 0 .2.1 0 .1-.1.2-.2.2-.5.4-.9.9-1.4 1.3-.8.8-1.6 1.5-2.5 2.3-.3.3-.7.5-1.2.6-.2.1-.5.1-.8.2-.1 0-.1 0-.2.1l-.3.3c-.1.1-.2.2-.4.3h8.9c.3-.2.5-.5.8-.8h-1c-.1 0-.3-.1-.4-.1-.1 0-.1-.1 0-.2 0 0 0-.1.1-.1l.4-.4c.4-.3.7-.7 1.1-1.1l.1.1zm18.9-1.3c.3-.3.7-.6 1-.9.1-.1.2-.1.3-.1.9-.1 1.7-.2 2.6-.3 1.4-.1 2.9-.1 4.3-.1h.1c-3 .8-6 1.5-9.1 2.3.2-.4.5-.6.8-.9zm-4.5-1.3l-.2.2c-.8.8-1.6 1.5-2.5 2.3-.5.4-1 .9-1.4 1.3-.3.3-.6.4-1 .5s-.7.2-1.1.2c-.2.2-.5.5-.8.7h8.9c.1-.1.3-.2.4-.4.1-.1.3-.2.4-.4h-.9c-.1 0-.3 0-.4-.1-.1 0-.2 0-.2-.2v-.1l1.5-1.5h3.7c1 0 2 0 3-.1.9-.1 1.9-.2 2.8-.4.7-.1 1.4-.4 2.1-.7.4-.2.7-.3 1-.6.1-.1.2-.3.3-.4.1-.2.1-.5-.1-.7-.1-.1-.2-.1-.3-.2-.2-.1-.4-.2-.7-.2-.6-.2-1.2-.2-1.8-.2-.8 0-1.5-.1-2.3-.1H51.5l-.8.8H51.6c.1 0 .1 0 .2.1s.1.2.1.2zM0 6.3V4.8c5.3-1.3 10.7-2.7 16-4h-2.6c-.7 0-1.5.1-2.2.1-.5 0-.9.1-1.4.1-.6.2-1.4.4-2.1.6l-2.1.6H3.5c.1 0 .1-.1.2-.1 1-.6 2.2-1.3 3.3-2 .1-.1.2-.1.3-.1h16.4l-.1.1c-.6.6-1.3 1.1-1.9 1.7-.1.1-.2.1-.2.1-1 .2-2 .5-3 .7-1.3.3-2.5.6-3.8.9-1.9.6-3.8 1.1-5.7 1.5-.6.2-1.3.3-2 .5h-.1H10.2c.9 0 1.7-.1 2.6-.2 1.6-.2 3.1-.5 4.6-1 .4-.1.7-.3 1.1-.4.1 0 .2-.1.3-.1h2c-.1 0-.1.1-.2.1-1.1.6-2.3 1.3-3.4 1.9-.2.1-.3.2-.5.3-.1 0-.1 0-.2.1H.4l-.4.1z"/></svg>