<?xml version="1.0" encoding="utf-8"?><svg xmlns="http://www.w3.org/2000/svg" xmlns:xlink="http://www.w3.org/1999/xlink"><symbol viewBox="0 0 30 18" id="arrow" xmlns="http://www.w3.org/2000/svg"><path d="M1.364 10.364h23.98l-4.49 4.49a1.364 1.364 0 001.928 1.928l6.819-6.818a1.364 1.364 0 000-1.928l-6.819-6.818a1.36 1.36 0 00-1.928 0 1.364 1.364 0 000 1.928l4.49 4.49H1.364a1.364 1.364 0 000 2.728z"/></symbol><symbol fill="none" viewBox="0 0 30 24" id="mail" xmlns="http://www.w3.org/2000/svg"><path d="M27.363.574H2.637A2.641 2.641 0 000 3.211v17.578a2.641 2.641 0 002.637 2.637h24.726A2.641 2.641 0 0030 20.789V3.211A2.641 2.641 0 0027.363.574zM27 2.332L15.056 14.275 3.009 2.332H27zM1.758 20.425V3.567l8.465 8.393-8.465 8.465zM3 21.668l8.47-8.47 2.969 2.942c.343.34.898.34 1.24-.003l2.894-2.894L27 21.668H3.001zm25.241-1.243L19.817 12l8.425-8.425v16.85z" fill="#475D7E"/></symbol><symbol fill="none" viewBox="0 0 30 30" id="phone" xmlns="http://www.w3.org/2000/svg"><path d="M29.229 22.127l-3.73-3.73a2.64 2.64 0 00-3.73 0l-1.695 1.696a2 2 0 01-2.825 0l-7.347-7.354a1.997 1.997 0 010-2.825l1.695-1.695a2.636 2.636 0 00-.001-3.73L7.867.77A2.64 2.64 0 004.141.77L2.78 2.116c-3.707 3.708-3.707 9.74 0 13.448l11.643 11.648a9.504 9.504 0 0013.448 0l1.357-1.356a2.64 2.64 0 000-3.729zM5.38 2.015a.88.88 0 011.244 0l3.729 3.717c.343.344.343.9 0 1.243l-.622.622-4.97-4.97.62-.612zm10.286 23.954L4.025 14.322a7.728 7.728 0 01-.485-10.43l4.955 4.955a3.752 3.752 0 00.163 5.136l7.348 7.354a3.752 3.752 0 005.136.163l4.955 4.956a7.714 7.714 0 01-10.43-.485zm12.318-1.356l-.621.622-4.973-4.973.622-.621a.88.88 0 011.243 0l3.73 3.73a.88.88 0 010 1.242z" fill="#475D7E"/></symbol><symbol viewBox="0 0 12 20" id="slider-arrow" xmlns="http://www.w3.org/2000/svg"><path d="M.812.266a.91.91 0 000 1.286L9.26 10 .812 18.448a.909.909 0 101.285 1.286l9.091-9.092a.91.91 0 000-1.285L2.098.267a.909.909 0 00-1.286 0z"/></symbol></svg>