<svg width="29" height="29" fill="none" xmlns="http://www.w3.org/2000/svg"><g clip-path="url(#clip0)"><path d="M28.673 14.082s-1.49-1.523-3.476-3.543V4.774a.608.608 0 0 0-.608-.609h-5.696C15.094.364 15.087.368 14.627.56a.608.608 0 0 0-.222.16l-3.45 3.445h-5.83a.608.608 0 0 0-.608.609v5.833l-3.472 3.47a.608.608 0 0 0 0 .86l3.472 3.472v5.828c0 .336.272.609.608.609h5.83l3.473 3.471a.608.608 0 0 0 .86 0l3.47-3.471h5.83a.608.608 0 0 0 .61-.609V18.41l3.47-3.472a.608.608 0 0 0 .005-.855z" fill="#fff"/><path d="M14.856 22.412a7.907 7.907 0 1 0 0-15.814 7.907 7.907 0 0 0 0 15.814z" fill="#BE2E21"/><path d="M14.855 9.031a5.474 5.474 0 0 0 0 10.948.608.608 0 0 0 .608-.608V9.64a.608.608 0 0 0-.608-.608z" fill="#fff"/></g><defs><clipPath id="clip0"><path fill="#fff" transform="translate(.855 .495)" d="M0 0h28v28H0z"/></clipPath></defs></svg>