<svg width="25" height="25" fill="none" xmlns="http://www.w3.org/2000/svg"><g clip-path="url(#clip0)" fill="#fff"><path d="M11.528 25a6.353 6.353 0 0 1-6.347-6.346V6.982a3.8 3.8 0 0 1-1.683-3.165A3.821 3.821 0 0 1 7.315 0a3.821 3.821 0 0 1 3.817 3.817 3.82 3.82 0 0 1-1.591 3.1v11.737a1.99 1.99 0 0 0 1.987 1.987 1.99 1.99 0 0 0 1.987-1.987v-8.028l7.987 5.144-2.36 3.665-1.268-.816v.035c0 3.5-2.847 6.346-6.346 6.346zM7.315 1.466a2.354 2.354 0 0 0-2.351 2.35c0 .888.492 1.69 1.284 2.095l.4.205v12.538c0 2.69 2.189 4.88 4.88 4.88 2.69 0 4.88-2.19 4.88-4.88V15.93l2.295 1.478.772-1.2-4.494-2.895v5.34a3.457 3.457 0 0 1-3.453 3.453 3.457 3.457 0 0 1-3.453-3.453V6.084l.377-.21a2.354 2.354 0 0 0 1.214-2.057 2.354 2.354 0 0 0-2.351-2.351z"/><path d="M7.297 4.502c.383 0 .75-.338.733-.733-.018-.397-.322-.733-.733-.733-.383 0-.75.337-.733.733.018.397.322.733.733.733z"/></g><defs><clipPath id="clip0"><path fill="#fff" d="M0 0h25v25H0z"/></clipPath></defs></svg>