<svg width="171" height="65" fill="none" xmlns="http://www.w3.org/2000/svg"><path fill-rule="evenodd" clip-rule="evenodd" d="M9.008 49.882c-2.614-.217-4.75-1.132-6.361-2.744-.654-.697-1.22-1.35-1.656-2.091-1.002-1.612-1.263-3.442-.697-5.49.436-1.525 1.177-2.788 1.874-4.008.305-.48.522-.784.915-.74.174 0 .392.086.74.26l.218.131.087.044.13.087c.175.697.088 1.22-.435 1.786-1.481 2.92-1.83 5.446-.915 7.32.74 1.524 2.31 2.44 4.226 2.614 2.92.26 6.274-1.395 7.014-4.967.044-.087.698-4.531-7.406-10.37-.61-.478-5.707-5.01-3.747-13.07 2.266-6.84 6.492-7.536 8.8-7.318 3.181.261 5.882 2.309 6.536 3.66 1.7 2.177 2.222 4.835 1.525 7.928-.044.131-.087.218-.13.305l-.132.262-.305.566-.087-1.22c-.174-2.483-.305-4.792-1.83-6.753-.827-.784-2.134-1.307-3.528-1.437-1.133-.088-3.311.043-4.75 2.004-1.22 1.612-2.221 5.01-.217 11.937.566 1.525 1.699 2.701 3.529 3.747 5.533 3.224 8.103 7.755 6.84 12.111-1.002 3.486-4.27 5.795-7.842 5.533h-.48c-.435-.043-1.089-.043-1.916-.087z" fill="#fff"/><path fill-rule="evenodd" clip-rule="evenodd" d="M33.71 50.057c-4.575-.393-8.452-2.876-10.413-6.666-1.655-3.18-2.744-8.844 1.482-17.645 2.483-4.356 10.979-13.636 11.589-13.985.348-.174.784-.392 1.307-.348.305.043.61.13.871.348.61.48 1.307.872 1.96 1.307.305.174.61.392.915.566.654.436 1.002 1.133.915 1.961-.087.784-.435 1.307-1.089 1.612-.784.349-12.809 9.76-13.55 18.821-.348 4.008 1.526 7.45 5.577 10.195 1.22.566 2.396.915 3.486 1.002 1.873.13 3.442-.48 4.661-1.917 4.488-5.272 3.137-19.431 3.137-19.605l-.043-.697c-.044-1.177-.087-1.787-.959-6.797l-.174-1.09.523.916c.61 1.089 2.222 6.753 2.352 7.32.654 2.7.959 5.184 1.002 7.623a30.358 30.358 0 0 1-.915 7.842c-1.045 6.971-7.275 9.672-12.634 9.237zM64.468 50.23c-4.574-.391-8.452-2.874-10.412-6.665-1.656-3.18-2.745-8.844 1.481-17.644 2.483-4.357 10.979-13.637 11.633-13.986.348-.174.784-.392 1.306-.348.305.043.61.13.872.348.61.48 1.263.872 1.917 1.307.305.175.61.393.915.567.653.436 1.002 1.133.915 1.96-.088.785-.436 1.307-1.09 1.612-.784.349-12.808 9.76-13.549 18.821-.349 4.009 1.525 7.45 5.577 10.195 1.22.566 2.396.915 3.485 1.002 1.873.13 3.442-.48 4.662-1.917 4.53-5.315 3.136-19.43 3.136-19.561l-.043-.698c-.044-1.176-.087-1.786-.959-6.796l-.174-1.09.523.916c.61 1.089 2.222 6.796 2.353 7.319.653 2.701.958 5.184 1.002 7.624.043 2.57-.305 5.228-.915 7.842-1.046 6.927-7.276 9.629-12.635 9.193z" fill="#BE2E21"/><path fill-rule="evenodd" clip-rule="evenodd" d="M84.989 50.275a1.125 1.125 0 0 1-1.046-1.046l-.13-1.176c-.175-1.351-.35-2.789-.437-4.183-.087-1.699 1.133-27.97 1.264-29.408v-.13l.13-.044a4.41 4.41 0 0 1 1.961-.305c.74.044 1.482.349 2.178.828 1.133.784 1.612 2.004 1.482 3.747l.218-.218.13-.174c1.96-2.353 4.008-4.14 6.318-5.446.958-.523 1.96-1.046 3.093-.959.174 0 .348.044.523.087 1.307.349 2.222 1.09 3.006 2.44.871 1.525.566 2.963.261 4.4l-.087.393a36.847 36.847 0 0 1-7.886 12.634l-.087.087.305.13c.436.175.915.393 1.35.654 1.308.785 2.005 2.048 2.049 3.616v10.282c.13-.174.304-.392.522-.653 1.569-1.96 4.793-6.056 5.882-7.015l.435-.392-.174.61c-.174.61-6.404 10.239-7.232 10.674-.218.13-.48.174-.784.13a2.158 2.158 0 0 1-1.438-.696c-2.919-4.967-2.962-10.848-2.962-13.07v-.828c-.087 0-1.002-.349-1.482-.392h-.305c-.653-.044-1.132-.436-1.525-.871-.392-.393-.566-.828-.522-1.308.043-.479.261-.914.697-1.263.218-.174.392-.392.566-.61l.349-.349c4.792-4.443 6.97-10.935 7.972-15.64.044-.174.131-.697 0-.871-.043-.044-.087-.088-.217-.088-.175 0-.392 0-.697.088-1.002.218-1.83.871-2.745 1.568-1.656 1.35-3.18 3.093-4.618 5.402-.131.218-.174.305-.305.392-.872.915-2.44 24.006-2.484 25.182 0 1.133-2.614 3.486-2.919 3.66-.217.087-.435.13-.61.13zM107.992 50.362c-.654-.044-.784-4.706.305-31.02.174-3.79.261-6.753.261-7.014l-.043-.131.13-.044c.436-.348 4.967-.348 14.334-.261 2.832.043 5.315.043 5.62 0 .131 0 .305-.044.436 0 .784.043 1.307.653 1.438 1.568 0 .175.043.262.043.392.044.262.131.567 0 .785-.218.348-1.612 1.568-3.485 1.742-1.743.131-10.718.392-12.068.436-.218 1.307-.697 8.234-.828 10.543l-.044.784c1.133-.174 4.488-.61 6.579-.87.871-.132 1.525-.219 1.655-.219.393-.043.61-.087.828-.043.523.043.915.305 1.438.871l.131.13-.131.131-.087.218c-.087.436-.174 1.133-1.046 1.22-.13.044-.653.087-1.699.174-1.176.087-2.657.218-3.398.392-.087.044-.436.088-.871.131-1.003.174-2.702.436-3.268.61-.479.174-.479.174-.523.654 0 .13-.087.74-.174 1.568-.261 2.701-.741 7.711-.871 8.54-.088.522-.088 1.045-.131 1.611 0 .175 0 .392-.044.61h.087c.262 0 .393.044.567.044.523-.044 1.089-.044 1.612-.087.958-.044 1.873-.131 2.832-.131 1.002-.044 1.96.043 2.875.13.174 0 1.394-.043 2.527-.087 1.568-.043 3.18-.13 3.529-.087.261.044.566.087.479 6.143v.13l-.131.044c-1.045.48-7.929.48-14.899.393-2.005 0-3.791-.044-3.965 0z" fill="#fff"/><path fill-rule="evenodd" clip-rule="evenodd" d="M155.872 50.666l-.087-.13c-.218-.48-2.745-4.052-5.184-7.494-2.876-4.051-5.882-8.234-6.361-9.192l-.175-.218c-.522.915-2.701 4.923-6.491 11.937l-.479.915c-.392.697-.828 1.002-1.438.959-.131 0-.305-.044-.479-.088l-.131-.043v-.13c-.087-.567-.043-1.003.261-1.57.654-1.306 7.233-13.244 7.45-13.549.218-.348.218-.653 0-1.002-.087-.13-8.234-14.9-8.059-15.597.174-.61.435-1.263 1.045-1.699l.523-.392c.697-.523 1.394-1.089 2.309-1.307.305-.087.61-.087.871-.087.523.044 1.002.261 1.525.654 2.266 1.742 6.622 10.238 7.407 11.85.61-.74 1.176-1.438 1.786-2.179 2.44-3.006 4.705-5.838 7.581-8.147l.174-.174.087.218c.479 1.22.436 1.655-.305 2.483-.828.872-7.624 8.496-8.234 9.367-.087.13-.131.436-.044.697.131.48 1.351 4.14 2.658 8.06 1.786 5.403 3.834 11.545 4.008 12.373.174.784.261 1.569.392 2.31l.044.478c0 .175 0 .305-.044.436l-.043.13-.044.175h-.436l-.087-.044z" fill="#BE2E21"/><path fill-rule="evenodd" clip-rule="evenodd" d="M43.164 32.717c-.174 1.394-1.307 2.396-2.614 2.222-1.307-.13-2.222-1.394-2.048-2.788.174-1.395 1.307-2.397 2.614-2.222 1.307.174 2.222 1.394 2.048 2.788zM70.437 32.455c-.174 1.395-1.307 2.397-2.614 2.222-1.307-.13-2.222-1.394-2.047-2.788.174-1.394 1.307-2.396 2.614-2.222 1.307.174 2.222 1.438 2.047 2.788zM62.29 64.26c-.871.348-1.96.522-3.311.522-.175 0-.305-.087-.48-.218-.13-.174-.217-.304-.217-.479v-1.699c0-.566.043-1.35.087-2.353.087-1.089.13-1.916.13-2.396 0-.348 0-.871.044-1.568.044-.174.087-.305.174-.392.523-.175 1.133-.262 1.787-.262.697 0 1.35.218 1.96.697.74.523 1.09 1.177 1.09 1.961 0 1.002-.393 1.786-1.177 2.353.566.261 1.002.522 1.307.827.305.305.436.61.436 1.002 0 .48-.262.915-.74 1.351a2.805 2.805 0 0 1-1.09.654zm-1.743-7.668c-.435 0-.74 0-.871.043v1.002l-.13 2.222c.566.044.827.044.87.044.567-.044 1.046-.218 1.438-.523.392-.349.61-.784.61-1.307 0-.349-.218-.697-.61-1.002-.435-.305-.871-.48-1.307-.48zm.654 4.661l-.61-.087h-.436c-.218 0-.436 0-.653-.043-.044.479-.044.915-.044 1.307v1.176c1.002-.044 1.83-.174 2.483-.436.262-.087.523-.261.785-.479.217-.218.348-.348.348-.436 0-.174-.261-.392-.74-.61-.436-.217-.785-.348-1.133-.392zm8.103 3.616c-1.089 0-2.004-.305-2.788-.958-.784-.697-1.22-1.612-1.22-2.701 0-1.35.392-2.57 1.176-3.66.872-1.22 2.004-1.83 3.311-1.83 1.264 0 2.222.305 2.832.872.654.61.959 1.525.959 2.832 0 1.35-.349 2.526-1.09 3.616-.784 1.22-1.873 1.83-3.18 1.83zm.523-7.929c-.959 0-1.743.48-2.396 1.394a4.906 4.906 0 0 0-.915 2.876c0 .74.261 1.35.828 1.83.523.435 1.176.653 1.96.653.959 0 1.7-.48 2.31-1.438a5.259 5.259 0 0 0 .827-2.831c0-.915-.218-1.569-.61-1.961-.392-.349-1.09-.523-2.004-.523zm10.805 7.624c-.131 0-.305-.043-.392-.174-1.264-1.263-2.702-2.135-4.227-2.527l.044 1.133.044 1.133a.56.56 0 0 1-.175.435.56.56 0 0 1-.435.175.56.56 0 0 1-.436-.175.56.56 0 0 1-.174-.435c0-.305 0-.74-.044-1.35-.043-.61-.043-1.046-.043-1.351 0-.349.043-.872.13-1.569.087-.697.131-1.22.131-1.568 0-.174 0-.48-.044-.871-.043-.393-.043-.698-.043-.872 0-.218.043-.392.174-.566.13-.218.349-.305.61-.262l1.394.131c.523.044.959.174 1.35.392 1.57.828 2.354 1.83 2.354 3.05 0 .566-.262 1.089-.785 1.568a4.338 4.338 0 0 1-1.612.828c1.22.654 2.091 1.307 2.701 2.048.088.13.131.261.131.392a.56.56 0 0 1-.174.435c-.174-.043-.305 0-.48 0zm-3.66-7.667l-.871-.087.043.697c.044.305.044.522.044.697 0 .305 0 .697-.087 1.132l-.131 1.133h.523c.958 0 1.699-.13 2.178-.392.218-.13.436-.261.61-.48.218-.217.305-.391.305-.566 0-.522-.305-1.045-.915-1.48-.523-.306-1.09-.567-1.699-.654zm13.55 6.317c0 .174-.044.48-.088.915-.043.392-.261.566-.61.566-.218 0-.479-.13-.74-.435-1.569-1.482-3.355-3.617-5.403-6.448l-.043 1.307V61.863c0 .654.043 1.133.043 1.438 0 1.046-.218 1.568-.61 1.568a.722.722 0 0 1-.522-.217.56.56 0 0 1-.175-.436c0-.174 0-.392.044-.74a5.36 5.36 0 0 0 .043-.741v-1.09c0-.479.044-.827.044-1.089v-1.132-1.177c0-.261-.044-.61-.087-1.089-.044-.48-.087-.828-.087-1.09a.7.7 0 0 1 .218-.478.722.722 0 0 1 .522-.218c.218 0 .436.218.741.653a45.566 45.566 0 0 0 2.614 3.573 29.932 29.932 0 0 0 3.006 3.224V61.34c0-1.699-.087-3.05-.174-4.051 0-.087-.087-.305-.174-.61-.088-.262-.131-.48-.131-.61 0-.436.218-.654.61-.654.653 0 1.002 1.264 1.002 3.747v1.917c-.044 1.09-.044 1.7-.044 2.135zm31.498-5.185c-.261 0-.435-.13-.566-.435-.087-.262-.218-.392-.305-.436-.087-.044-.261-.044-.61-.044-.566 0-1.176.436-1.873 1.308-.915 1.132-1.394 2.221-1.394 3.267 0 .48.174.915.479 1.307.305.349.74.566 1.176.566a2.37 2.37 0 0 0 1.176-.304c.218-.131.567-.35 1.046-.698.218-.174.392-.261.479-.261a.56.56 0 0 1 .436.174c.131.131.174.262.174.436s-.087.305-.218.48c-1.002.914-2.047 1.35-3.093 1.35a2.563 2.563 0 0 1-2.004-.915 3.121 3.121 0 0 1-.784-2.091c0-1.307.566-2.658 1.655-4.009.915-1.132 1.83-1.699 2.789-1.699.174 0 .348 0 .522.044.131 0 .305.043.393.087a.567.567 0 0 1 .522-.305c.262 0 .436.174.523.523.044.305.087.697.087 1.133a.737.737 0 0 1-.13.435c-.131 0-.262.087-.48.087zm8.017 6.666c-.349 0-.654-.48-.915-1.394a45.566 45.566 0 0 1-.392-1.83 9.33 9.33 0 0 0-1.525.305l-1.525.305c-.174.523-.523 1.264-1.002 2.222a.57.57 0 0 1-.523.305c-.174 0-.305-.044-.392-.174a.558.558 0 0 1-.174-.436c0-.174.305-.871.871-2.135a.829.829 0 0 1-.087-.348c0-.305.174-.523.566-.61a45.68 45.68 0 0 1 1.656-2.832c.915-1.481 1.481-2.178 1.699-2.178.305 0 .523.217.61.653l.348 1.96.872 4.009.348.915c.131.305.175.523.175.61a.559.559 0 0 1-.175.435c-.174.175-.305.218-.435.218zm-2.048-6.622l-1.656 2.658c.48-.131 1.177-.262 2.135-.436l-.479-2.222zm11.371-.871c-.305 0-.741 0-1.307-.087-.566-.044-1.002-.044-1.307-.044h-.392c0 .523.043 1.394.131 2.614.087 1.133.13 2.004.13 2.614 0 .13 0 .349.044.61.043.261.043.48.043.61 0 .261-.043.48-.13.697-.087.261-.262.392-.523.392a.56.56 0 0 1-.436-.174.562.562 0 0 1-.174-.436c0-.043 0-.13.044-.261 0-.131.043-.218.043-.262 0-.174 0-.479-.043-.871-.044-.392-.044-.654-.044-.871 0-.567-.044-1.351-.131-2.31-.087-1.089-.13-1.873-.13-2.309h-.523c-.828 0-1.525-.043-2.004-.174-.305-.087-.48-.261-.48-.566 0-.174.044-.305.131-.436.131-.13.262-.218.436-.174.131 0 .436.043.915.087.392.044.697.087.958.087h2.091c.305 0 .741 0 1.307.044.567.043 1.046.043 1.307.043a.56.56 0 0 1 .436.175c.131.13.174.261.174.435a.558.558 0 0 1-.174.436c-.087.044-.218.13-.392.13zm6.535.827c-.261 0-.436-.13-.566-.435-.087-.262-.218-.392-.305-.436-.087-.044-.262-.044-.61-.044-.567 0-1.177.436-1.874 1.308-.914 1.132-1.394 2.221-1.394 3.267 0 .48.175.915.479 1.307.305.349.741.566 1.177.566a2.37 2.37 0 0 0 1.176-.304c.218-.131.567-.35 1.046-.698.218-.174.392-.261.479-.261a.56.56 0 0 1 .436.174c.13.131.174.262.174.436s-.087.305-.218.48c-1.002.914-2.048 1.35-3.093 1.35a2.563 2.563 0 0 1-2.004-.915 3.121 3.121 0 0 1-.784-2.091c0-1.307.566-2.658 1.655-4.009.915-1.132 1.83-1.699 2.788-1.699.175 0 .349 0 .523.044.131 0 .305.043.392.087a.57.57 0 0 1 .523-.305c.261 0 .436.174.523.523.043.305.087.697.087 1.133a.737.737 0 0 1-.131.435c-.13 0-.261.087-.479.087zm9.193-1.655a2.711 2.711 0 0 0-.087.697v1.046c0 .392-.044.958-.088 1.742-.043.784-.087 1.35-.087 1.743 0 .305 0 .74.044 1.307.043.566.043 1.046.043 1.307 0 .174-.043.305-.174.392-.087.13-.261.174-.392.174-.174 0-.305-.043-.392-.174-.131-.087-.174-.261-.174-.392 0-.305 0-.74-.044-1.35-.043-.567-.043-1.046-.043-1.308 0-.261 0-.566.043-.871-.653 0-1.481.13-2.44.305l-2.439.48c0 .348-.044.827-.087 1.48-.088.654-.088 1.133-.088 1.482 0 .174-.043.305-.174.392-.087.13-.218.174-.392.174-.174 0-.305-.043-.392-.174-.087-.13-.174-.261-.174-.392 0-.392.043-1.002.087-1.83.087-.828.087-1.438.087-1.83 0-.218 0-.523-.044-.958 0-.436-.043-.741-.043-.959 0-.305 0-.784.043-1.394.044-.61.044-1.09.044-1.394 0-.174.043-.305.174-.392.087-.13.218-.175.392-.175.175 0 .305.044.392.175.088.13.175.261.175.392 0 .305 0 .784-.044 1.394-.044.61-.043 1.09-.043 1.394l.043 1.482 2.483-.48a23.643 23.643 0 0 1 2.484-.305c.043-.566.043-1.394.043-2.483 0-.305.044-.61.131-.871.131-.393.305-.61.523-.61.13 0 .261.043.392.174.131.087.174.261.174.392.087 0 .087.087.044.218z" fill="#fff"/><path fill-rule="evenodd" clip-rule="evenodd" d="M102.459 57.202c-.305 0-.741 0-1.307-.087-.567-.044-1.002-.044-1.307-.044h-.392c0 .523.043 1.394.13 2.614.087 1.133.13 2.004.13 2.614 0 .13 0 .349.044.61s.044.48.044.61c0 .261-.044.48-.13.697-.088.261-.262.392-.524.392a.56.56 0 0 1-.435-.174.56.56 0 0 1-.175-.436c0-.043 0-.13.044-.261 0-.13.044-.218.044-.262 0-.174 0-.479-.044-.87a7.144 7.144 0 0 1-.044-.872c0-.567-.043-1.35-.13-2.31-.087-1.089-.13-1.873-.13-2.308h-.524c-.827 0-1.525-.044-2.004-.175-.305-.087-.479-.261-.479-.566 0-.174.044-.305.13-.436.131-.13.262-.218.436-.174.131 0 .436.044.915.087.392.044.697.087.959.087H99.8c.305 0 .741 0 1.307.044.566.043 1.046.043 1.307.043a.56.56 0 0 1 .436.175c.13.13.174.261.174.435a.561.561 0 0 1-.174.436c-.087.044-.218.13-.392.13zm4.836 7.668c-1.09 0-2.005-.305-2.789-.959-.784-.697-1.22-1.612-1.22-2.701 0-1.35.392-2.57 1.177-3.66.871-1.22 2.004-1.83 3.311-1.83 1.263 0 2.222.305 2.832.872.653.61.958 1.525.958 2.832 0 1.35-.348 2.526-1.089 3.616-.784 1.22-1.873 1.83-3.18 1.83zm.522-7.93c-.958 0-1.742.48-2.396 1.395a4.905 4.905 0 0 0-.915 2.875c0 .74.262 1.35.828 1.83.523.435 1.176.653 1.961.653.914 0 1.699-.479 2.309-1.438a5.265 5.265 0 0 0 .827-2.831c0-.915-.217-1.569-.61-1.96-.435-.35-1.089-.524-2.004-.524z" fill="#BE2E21"/><path clip-rule="evenodd" d="M163.67 1c3.747 0 6.797 2.963 6.797 6.579 0 3.616-3.05 6.578-6.797 6.578-3.746 0-6.796-2.962-6.796-6.578S159.924 1 163.67 1z" stroke="#FDFDFE" stroke-width=".079" stroke-miterlimit="500"/><path fill-rule="evenodd" clip-rule="evenodd" d="M160.969 11.282V3.919h3.268c.653 0 1.133.087 1.481.218.349.13.61.348.828.697.218.348.305.697.305 1.089 0 .523-.174.958-.523 1.307-.349.349-.871.566-1.568.697.261.13.435.262.566.349.305.261.566.566.784.958l1.264 2.004h-1.22l-.959-1.525c-.305-.435-.523-.784-.697-1.002-.174-.218-.348-.392-.479-.479-.131-.087-.305-.174-.436-.174-.13-.044-.305-.044-.523-.044h-1.132v3.268h-.959zm.959-4.096h2.091c.436 0 .784-.043 1.046-.13.261-.087.435-.218.566-.436.131-.218.174-.436.174-.653 0-.349-.131-.654-.392-.872-.261-.218-.653-.348-1.176-.348h-2.309v2.44z" fill="#fff"/></svg>