<svg width="281" height="49" fill="none" xmlns="http://www.w3.org/2000/svg"><path d="M1 33V17l8.5 12.5 9-12.5v16M246.5 33V17l8.5 12.5 9-12.5v16M212 31.5v-6m0 0V16c4-.167 9.5 0 9.5 4s-2.5 5.5-5 5.5H212z" stroke="#fff" stroke-width="2"/><circle cx="31" cy="23.5" r="7.5" stroke="#fff" stroke-width="2"/><path d="M49.5 32V16h-7 14M200.5 32V16h-7 14M59.5 16l7.5 9m0 0l6.5-9M67 25v7M79 16v15.5h11M174 31h-11.5v-8m0 0v-8H174m-11.5 8H174M241 32h-11.5v-8m0 0v-8H241m-11.5 8H241M281 32h-11.5v-8m0 0v-8H281m-11.5 8H281M178 16l6.25 7.5m6.25 7.5l-6.25-7.5m0 0l6.25-7L178 31" stroke="#fff" stroke-width="2"/><path d="M218 25.5l4.5 6" stroke="#fff" stroke-width="2" stroke-linecap="round"/><path d="M116.5 49V0L143 24l-26.5 25zM99.5 32V15l9 8.326-9 8.674z" fill="#fff"/><circle cx="146.5" cy="30" r="3" fill="#fff"/><circle cx="151.5" cy="24" r="2" fill="#fff"/><circle cx="146.5" cy="20" r="1" fill="#fff"/></svg>