<svg width="1291" height="1007" fill="none" xmlns="http://www.w3.org/2000/svg"><path d="M19.495 1006.55s.272 0 0 0l.272-.28-7.064-117.097c0-.272 0-.272-.272-.272s-.272 0-.272.272l-50.264 107.32v.271l.272.272 57.328 9.514zm-7.336-116.018l7.064 115.198-56.784-9.509 49.72-105.689z" fill="#fff" fill-opacity=".2"/><path d="M262.662 989.157s.272 0 0 0c.272-.271.272-.543.272-.543l-115.199-124.98h-.272L12.431 889.173c-.272 0-.272.272-.272.272 0 .272 0 .272.272.272l250.231 99.44zm-115.199-124.98L261.575 988.07 13.789 889.445l133.674-25.268z" fill="#fff" fill-opacity=".2"/><path d="M373.784 900.312c.272 0 .272 0 0 0l.272-.272-.543-23.637c0-.272-.272-.272-.272-.272l-225.779-12.769c-.271 0-.271 0-.271.271 0 .272 0 .272.271.272l226.322 36.407zm-.815-23.637l.544 22.822-219.53-35.049 218.986 12.227z" fill="#fff" fill-opacity=".2"/><path d="M373.513 876.675l179.319-24.452s.272 0 .272-.272v-.272l-24.453-56.512s0-.272-.271-.272h-.272l-154.866 80.694c-.272 0-.272.271-.272.271.272.815.272.815.543.815zm178.776-24.996l-176.874 23.91 152.693-79.879 24.181 55.969z" fill="#fff" fill-opacity=".2"/><path d="M656.076 897.053l.272-.272-17.117-158.67s0-.272-.271-.272h-.272l-110.852 57.328-.271.272v.271l128.511 101.343c-.271 0-.271 0 0 0zm-17.388-158.399l16.845 157.312L528.651 795.71l110.037-57.056z" fill="#fff" fill-opacity=".2"/><path d="M872.345 854.94c.272-.272.272-.272.272-.544l-92.92-209.205s0-.272-.271-.272h-.272l-140.467 92.92-.271.272s0 .271.271.271L872.345 854.94c-.271 0 0 0 0 0zm-93.191-209.206l92.376 207.847-232.027-115.742 139.651-92.105z" fill="#fff" fill-opacity=".2"/><path d="M1001.13 755.77c.27-.272.27-.272.27-.543l-39.666-159.214s0-.271-.272-.271h-.272l-182.307 49.176c-.272 0-.272.272-.272.272 0 .272 0 .272.272.272L1001.13 755.77zm-39.94-159.213l39.4 158.126L780.241 645.19l180.949-48.633zM12.43 889.445s.272 0 0 0c.272-.272.272-.272.272-.543l-36.95-111.939s0-.272-.272-.272h-.272l-110.037 83.683s-.271.271 0 .271c0 0 0 .272.272.272L12.43 889.445zm-37.222-111.667L11.887 888.63l-145.629-27.985 108.95-82.867z" fill="#fff" fill-opacity=".2"/><path d="M147.463 864.177s0-.272 0 0c.272 0 .272 0 .272-.272l45.373-103.515v-.272l-.272-.272-217.628 16.845c-.272 0-.272 0-.272.272s0 .272.272.272l172.255 86.942c0-.272 0 0 0 0zm44.83-103.516l-44.83 102.701-170.625-85.856 215.455-16.845z" fill="#fff" fill-opacity=".2"/><path d="M12.43 889.444l135.305-25.539c.272 0 .272-.272.272-.272 0-.271 0-.271-.272-.271L-24.52 776.963h-.271s-.272.271 0 .271l36.95 111.939c0 .272 0 .271.272.271zm133.947-25.811L12.431 888.901l-36.679-110.852 170.625 85.584zM373.513 876.675c.272-.272.272-.272.272-.543l-53.252-151.335c0-.271-.272-.271-.544-.271l-127.425 35.32-.271.272s0 .271.271.271l180.949 116.286c-.271 0-.271 0 0 0zm-53.524-151.334l52.709 150.247-179.047-115.199 126.338-35.048z" fill="#fff" fill-opacity=".2"/><path d="M373.513 876.675c.272 0 .272 0 .272-.272s0-.272-.272-.272L192.836 760.117h-.272s-.271 0-.271.272L146.92 863.905v.272l.271.271 226.322 12.227c-.271 0 0 0 0 0zM193.108 760.661L372.155 875.86l-224.149-12.498 45.102-102.701zM528.109 795.982c.271 0 .271 0 0 0 .271 0 .271-.272.271-.272l-16.03-156.496s0-.272-.271-.272h-.272L319.99 724.798l-.272.271c0 .272 0 .272.272.272l208.119 70.641zm-16.302-156.225l16.03 155.41-206.76-70.098 190.73-85.312z" fill="#fff" fill-opacity=".2"/><path d="M373.514 876.676l154.866-80.965c.272 0 .272-.272.272-.544 0 0 0-.271-.272-.271l-208.119-70.641h-.271v.272l53.252 151.334c-.272.815 0 .815.272.815-.272 0-.272 0 0 0zm153.779-80.965l-153.779 80.15-52.981-150.248 206.76 70.098zM638.96 738.382s.272 0 0 0c.272 0 .272-.272.272-.272L618.039 611.5s0-.271-.271-.271h-.272l-105.69 27.441s-.271 0-.271.271v.272l127.425 99.169zm-21.464-126.338l20.92 125.251-125.794-98.082 104.874-27.169z" fill="#fff" fill-opacity=".2"/><path d="M528.108 795.981c.272 0 .272 0 0 0l110.852-57.327.272-.272v-.272L512.35 639.213h-.272l-.271.272 16.03 156.496c0-.271 0-.271.271 0zm110.308-57.871l-109.764 57.056-16.03-155.138 125.794 98.082zM779.427 645.735s.271 0 .271-.272v-.272l-24.996-68.739c0-.271-.271-.271-.271-.271L618.04 611.229c-.272 0-.272.272-.272.272 0 .272 0 .272.272.272l161.387 33.962c-.272 0 0 0 0 0zm-25.54-68.739l24.724 67.924-159.213-33.419 134.489-34.505z" fill="#fff" fill-opacity=".2"/><path d="M638.96 738.382s.272 0 0 0l140.467-92.92.271-.272-.271-.271-161.387-33.69h-.272v.271l21.192 126.61c-.272.272-.272.272 0 .272zm139.38-92.92l-139.108 92.105-20.921-125.523 160.029 33.418zM961.463 596.557c.271 0 .271 0 .271-.271 0-.272 0-.272-.271-.272l-130.958-45.373h-.271l-76.347 25.811c-.271 0-.271.272-.271.272 0 .271.271.271.271.271l207.576 19.562zm-130.958-45.373l128.241 44.558-202.957-19.29 74.716-25.268z" fill="#fff" fill-opacity=".2"/><path d="M779.426 645.734l182.308-49.177c.271 0 .271-.272.271-.272 0-.271-.271-.271-.271-.271L754.43 576.452h-.272v.271l24.996 68.739s0 .272.272.272zm180.134-49.449l-180.134 48.362-24.724-67.924 204.858 19.562zM192.836 760.661s.272 0 0 0c.272-.272.272-.272.272-.543L91.222 534.067l-.272-.272h-.272l-109.221 134.49v.271s0 .272.272.272l211.107 91.833zM90.95 534.882l101.343 224.692-209.75-90.746L90.95 534.882z" fill="#fff" fill-opacity=".2"/><path d="M-24.792 777.506s.272 0 0 0l217.628-16.845c.272 0 .272 0 .272-.271 0-.272 0-.272-.272-.272l-211.107-91.29h-.272l-.271.272-6.521 108.406c.272-.271.272 0 .543 0zm216.269-17.388l-215.725 16.845L-18 669.372l209.476 90.746zM320.262 725.341c.271 0 .271-.271.271-.271l-32.06-242.352s0-.272-.271-.272h-.272L90.95 534.34s-.27 0-.27.271v.272l229.582 190.458c-.272 0-.272 0 0 0zm-32.604-242.352l32.06 241.266L91.766 534.611l195.892-51.622z" fill="#fff" fill-opacity=".2"/><path d="M192.837 760.662l127.425-35.321s.271 0 .271-.271v-.272l-229.31-190.73h-.544s-.272.272 0 .543l101.886 226.051h.272zm126.61-35.864l-126.339 35.049-101.07-224.421 227.409 189.372zM512.078 639.485c.272-.272.272-.272.272-.544l-73.086-140.194-.272-.272-151.063-16.302c-.271 0-.271 0-.271.272v.272l224.42 156.768c-.272 0 0 0 0 0zM438.72 499.29l72.271 138.836-221.975-155.138L438.72 499.29z" fill="#fff" fill-opacity=".2"/><path d="M320.261 725.34l192.088-85.855.272-.272s0-.272-.272-.272L288.201 482.173h-.272l-.272.272 32.06 242.352c0 .272.272.543.544.543-.272 0-.272 0 0 0zm191.002-86.127l-191.002 85.312-32.06-241.265 223.062 155.953zM617.768 612.044s.272 0 0 0c.272-.271.272-.271.272-.543l-61.947-138.293c0-.272-.272-.272-.272-.272l-116.828 25.54-.272.271s0 .272.272.272l178.775 113.025zM555.821 473.48l61.132 137.206-177.145-111.667 116.013-25.539z" fill="#fff" fill-opacity=".2"/><path d="M512.078 639.486l105.961-27.441.272-.272s0-.272-.272-.272L439.264 498.748h-.544s-.271.271 0 .271l73.086 140.195c0 .272 0 .272.272.272zm104.875-27.985l-104.875 27.17-72.271-138.837 177.146 111.667zM754.158 576.995s.272 0 0 0c.272 0 .272-.272.272-.272l-6.793-193.447s0-.271-.271-.271h-.272l-191.545 90.202-.272.272s0 .272.272.272l198.609 103.244zm-7.064-193.447l6.792 192.36-196.979-102.972 190.187-89.388z" fill="#fff" fill-opacity=".2"/><path d="M617.767 612.044l136.391-35.049.272-.271c0-.272 0-.272-.272-.272L555.82 472.936h-.271v.272l61.946 138.293c0 .272.272.543.272.543zm135.576-35.592l-135.304 34.777-61.404-137.206 196.708 102.429z" fill="#fff" fill-opacity=".2"/><path d="M754.158 576.995l76.618-25.811s.272 0 .272-.271v-.272l-83.139-167.636c0-.272-.271-.272-.271-.272-.272 0-.272.272-.272.272l6.792 193.447c-.271.272-.271.543 0 .543zm76.075-26.354l-75.531 25.539-6.793-191.545 82.324 166.006zM90.95 534.611c.272 0 .272 0 .272-.272l49.72-126.338v-.272s-.272-.272-.272 0l-258.382 33.962c-.271 0-.272.272-.272.272 0 .271.001.271.272.271L90.95 534.611zm49.177-126.339L90.678 533.796l-207.303-91.833 256.752-33.691z" fill="#fff" fill-opacity=".2"/><path d="M-18.271 669.1s.272 0 0 0L91.222 534.339v-.272s0-.271-.271-.271l-208.662-92.377h-.272v.272l99.44 227.137c0 .272 0 .272.272.272zM90.407 534.339L-18.271 668.013l-98.897-225.779 207.575 92.105zM287.929 482.989s0-.272 0 0c.272 0 .272-.272.272-.272s0-.271-.272-.271L140.67 407.729h-.543v.544l29.072 20.649 118.73 54.067zm-143.455-72.814l128.512 65.207-103.244-47.004-25.268-18.203z" fill="#fff" fill-opacity=".2"/><path d="M90.95 534.611l196.979-51.622.272-.272s0-.271-.272-.271L140.67 407.729h-.271s-.272.001-.272.272L90.407 534.34c.272 0 .272 0 .543.271-.272 0 0 0 0 0zm196.164-52.165l-195.62 51.35 49.448-125.523 146.172 74.173z" fill="#fff" fill-opacity=".2"/><path d="M438.991 499.291s.272 0 0 0c.272-.272.272-.272.272-.544L379.762 303.67s0-.272-.272-.272h-.271L169.47 428.107l-.272.271s0 .272.272.272l269.521 70.641zM379.49 304.485l59.23 193.991-267.892-70.098L379.49 304.485z" fill="#fff" fill-opacity=".2"/><path d="M438.991 499.291c.272 0 .272 0 .272-.272s0-.272-.272-.272l-269.25-70.369c-.271 0-.271 0-.271.272s0 .272.271.543l118.188 53.524 151.062 16.574zm-265.446-69.554l261.099 68.195-146.443-15.758-114.656-52.437zM556.093 473.48c.272 0 .272-.272.272-.544l-49.449-189.915c0-.271-.272-.271-.272-.271l-126.881 20.649s-.272 0-.272.271v.272L556.093 473.48c-.272 0-.272 0 0 0zm-49.72-189.915l48.905 188.556-174.972-167.907 126.067-20.649z" fill="#fff" fill-opacity=".2"/><path d="M438.992 499.29l117.101-25.811s.272 0 .272-.272v-.272L380.034 303.669h-.543l-.272.272 59.501 195.077.272.272zm116.286-26.355l-116.014 25.54-58.958-193.447 174.972 167.907z" fill="#fff" fill-opacity=".2"/><path d="M556.093 473.479l191.545-90.203s.272 0 .272-.271c0-.272 0-.272-.272-.544l-240.722-99.984h-.272s-.271.272 0 .272l49.449 189.915c-.543.815-.272.815 0 .815-.272 0-.272 0 0 0zm190.458-90.474l-190.458 89.659-49.177-189.1 239.635 99.441zM140.67 408.273s.272 0 0 0c.272-.272.272-.272.272-.544 0 0 0-.271-.272-.271l-92.104-58.143-202.957-43.2c-.272 0-.272 0-.272.272s0 .272.272.543L140.67 408.273zM48.294 350.13l89.659 56.512-287.182-98.353L48.294 350.13z" fill="#fff" fill-opacity=".2"/><path d="M-117.712 442.234l258.382-33.961h.272v-.272s0-.272-.272-.272l-295.333-101.07h-.271v.271l36.679 135.304c.271-.271.271 0 .543 0zm257.024-34.505l-256.752 33.69-36.407-134.217 293.159 100.527z" fill="#fff" fill-opacity=".2"/><path d="M169.742 428.921c.272 0 .272-.272.272-.272l16.03-125.523v-.272h-.272L48.566 349.586l-.272.272s0 .271.272.271l121.176 78.792c-.271 0 0 0 0 0zm15.487-125.523l-16.03 124.436-120.09-77.976 136.12-46.46z" fill="#fff" fill-opacity=".2"/><path d="M169.742 428.922s.272 0 .272-.272v-.543l-29.072-20.649-92.105-58.143h-.543v.544l121.448 79.063c-.272 0 0 0 0 0zM89.32 375.941l51.351 32.332 16.03 11.411-67.38-43.743zM379.491 304.213s.272 0 .272-.272v-.272l-91.833-93.463s-.272-.271-.544 0l-102.157 92.648s-.272.272 0 .272l.272.272 193.99.815zM287.93 210.75l91.018 92.648-192.089-.815L287.93 210.75z" fill="#fff" fill-opacity=".2"/><path d="M169.742 428.921l210.02-124.708.272-.272c0-.271-.272-.271-.272-.271l-193.719-.816c-.271 0-.271.001-.271.272l-16.03 125.523c-.272 0-.272 0 0 .272-.272 0 0 0 0 0zm208.662-124.708L170.285 427.834l16.03-124.436 192.089.815zM48.566 350.129c.272-.271.272-.271.272-.543l-98.354-206.76-.271-.272-129.599.544c-.272 0-.272 0-.272.271v.272L48.566 350.129c-.272 0-.272 0 0 0zm-98.625-206.76l97.538 204.859-226.05-204.315 128.512-.544z" fill="#fff" fill-opacity=".2"/><path d="M48.566 350.129s.272 0 .272-.271v-.272l-227.952-206.217h-.272l-.272.272 24.996 163.017c0 .272 0 .272.272.272l202.956 43.199zm-227.409-205.401L47.479 349.314l-201.597-42.928-24.725-161.658zM185.772 303.398s.272 0 0 0c.272-.271.272-.271.272-.543l-70.097-163.017-.272-.272-165.463 2.989c-.271 0-.271 0-.271.271v.272l235.831 160.3c-.271 0 0 0 0 0zm-70.369-163.017l69.554 161.659-233.658-158.67 164.104-2.989z" fill="#fff" fill-opacity=".2"/><path d="M48.566 350.13l137.478-46.732.271-.271s0-.272-.271-.272l-235.56-159.757h-.543s-.272.272 0 .272l98.353 206.76h.272zm136.391-47.275l-136.391 46.46-97.539-205.13 233.93 158.67z" fill="#fff" fill-opacity=".2"/><path d="M185.773 303.398s.271 0 0 0l102.157-92.919v-.272c0-.272 0-.272-.272-.272l-172.254-70.369h-.272v.272l70.097 163.017c.272.272.272.543.544.543zm101.342-92.919l-101.342 92.104-69.554-161.658 170.896 69.554z" fill="#fff" fill-opacity=".2"/><path d="M-49.787 143.369l165.462-2.988h.272l.271-.272s0-.272-.271-.272l-239.092-173.07h-.544s-.271.272 0 .272l73.63 176.059c0 .271.272.271.272.271zm164.375-3.532l-164.104 2.989-73.086-174.972 237.19 171.983z" fill="#fff" fill-opacity=".2"/></svg>