<?xml version="1.0" encoding="utf-8"?><svg viewBox="0 0 100 30" xmlns="http://www.w3.org/2000/svg" xmlns:xlink="http://www.w3.org/1999/xlink"><style>:root>svg{display:none}:root>svg:target{display:block}</style><svg viewBox="0 0 116 15" fill="#fff" id="logo" xmlns="http://www.w3.org/2000/svg"><path d="M113.8 13.1v-.6h.4c.2 0 .4 0 .4.3s-.2.3-.4.3h-.4zm0 .3h.3l.5.8h.3l-.5-.8c.3 0 .5-.2.5-.5 0-.4-.2-.5-.7-.5h-.7v1.9h.3v-.9zm.3 1.5c.9 0 1.6-.7 1.6-1.6 0-.9-.7-1.6-1.6-1.6s-1.6.7-1.6 1.6.8 1.6 1.6 1.6zm-1.3-1.7c0-.8.6-1.4 1.3-1.4.7 0 1.3.6 1.3 1.4 0 .8-.6 1.4-1.3 1.4s-1.3-.6-1.3-1.4zm-10.4 1.7l2.9-11.4h-4.9l-2.8 11.4h-7.8l2.9-11.4h-4.9l-3 11.4h-8.1L80.6 0s26.1-.1 28.9 0c1.7 0 4.1 1.7 3.3 5.1-1 4-1.7 7.4-2.3 9.8h-8.1zM66.8 6.8h-6.2l.9-3.6h6.1l-.8 3.6zM58.7 0c-1.3 0-4-.2-5.4 4.2-.7 2.3-2.9 10.7-2.9 10.7h3.9c1.8 0 3.7.1 4.3-1.1.5-1.1 1.2-3.9 1.2-3.9h6.4l-1.3 5H73C76.7.7 76.9 0 76.9 0H58.7zM11.4 3.2L10.7 6h13.1l-1.2 4.4c-.8 3.1-2.5 4.5-5.9 4.5H0l.8-3.1h13.4l.8-3.2H1.6L2 7c.2-.7.4-1.4.6-2.2C3.2 2.6 4.2.3 7.9.1h17.4l-.9 3.1h-13zm29.7 3.6h-6.2l1-3.6H42l-.9 3.6zM46.3 0H33c-4.7 0-5.3 3.8-5.5 4.2-.2.5-2.1 8.2-2.8 10.7h8.1l1.6-6c.2.2 3.3 4.1 4.3 5.2.8.9 1.4.8 4.4.8H48l-4.5-5.4h5c.3-1.5.8-3.2 1.2-4.8C50.4 2 48.3 0 46.3 0z"/></svg><svg viewBox="0 0 59.3 10" id="quark" xmlns="http://www.w3.org/2000/svg"><path d="M27.2 7.3h2c.3-.5.6-.9.9-1.4h-2l1.5-2.4c1.4 2.2 2.8 4.4 4.1 6.5h2c-1.9-2.8-3.7-5.5-5.5-8.1H29c-.8 1-5.3 7.7-5.4 8.1h1.9c.6-1 1.2-1.8 1.7-2.7zm-5-4.9v3.9c0 1.3-.8 2.1-2.1 2.2h-1.9c-.3 0-.6 0-.9-.2-.8-.3-1.2-1-1.2-1.8V1.8c-.6 0-1.1-.1-1.6 0 0 .1-.1.1-.1.2 0 1.5-.1 2.9 0 4.4.1 2.1 1.6 3.5 3.7 3.5h2c2.1 0 3.7-1.5 3.7-3.7V2.1c0-.1 0-.2-.1-.4h-1.6v.7h.1zm22.1 4.4c1-.7 1.4-2 1.1-3.1-.4-1.2-1.4-1.9-2.7-1.9H36.4v8.1c.6 0 1.1.1 1.7 0V7.6 5.4 3.2h4.6c.5 0 1 .5 1 1v.5c0 .7-.5 1.1-1.1 1.1h-2.5c-.3.5-.6.9-1 1.4H42c.6.9 1.1 1.8 1.7 2.6h2c-.7-1-1.3-1.9-2-2.9.4 0 .5 0 .6-.1zm12.8-1.4c0-1.7-1.3-3.6-3.6-3.7h-3.1c-1.9 0-3.5 1.6-3.5 3.5v1.2c.1 1.7 1.2 3.1 2.9 3.4.6.1 1.2.1 1.6.1.5-.6 1-1 1.4-1.4h-2.3c-1-.1-1.8-.8-1.8-1.9V5.1c.1-1.2 1.1-1.9 2-1.9h3c1 0 1.7.6 1.9 1.6.1.6.1 1.3 0 1.9 0 .2-.1.4-.2.7-.4-.3-.8-.5-1.1-.7-.2-.2-.5-.2-.8-.2h-2.4c1.9 1.2 3.7 2.3 5.5 3.4h2.7v-.1c-.9-.5-1.7-1.1-2.6-1.6.4-.9.4-1.8.4-2.8zM14.6 9.9h-3.1C9.4 8.6 7.3 7.3 5.1 6v-.1H8c.2 0 .4.1.6.2.6.4 1.3.8 2 1.2.1-.3.1-.6.1-.8V3.4c0-1.2-.9-2-2-2h-5c-1.1 0-1.9.7-2 1.8v3.6c0 .9.7 1.5 1.6 1.7H8c-.6.5-1 1-1.5 1.4-1.1 0-2.2.1-3.2 0C1.5 9.8 0 8.2 0 6.3V3.5C0 1.5 1.6 0 3.5 0h5.3c2 0 3.5 1.6 3.5 3.5v2.9c0 .6-.2 1.2-.5 1.8 1.1.5 1.9 1.1 2.8 1.7 0-.1 0 0 0 0z"/></svg><svg viewBox="0 0 59.3 10" fill="#f30134" id="quark-red" xmlns="http://www.w3.org/2000/svg"><path d="M27.2 7.3h2c.3-.5.6-.9.9-1.4h-2l1.5-2.4c1.4 2.2 2.8 4.4 4.1 6.5h2c-1.9-2.8-3.7-5.5-5.5-8.1H29c-.8 1-5.3 7.7-5.4 8.1h1.9c.6-1 1.2-1.8 1.7-2.7zm-5-4.9v3.9c0 1.3-.8 2.1-2.1 2.2h-1.9c-.3 0-.6 0-.9-.2-.8-.3-1.2-1-1.2-1.8V1.8c-.6 0-1.1-.1-1.6 0 0 .1-.1.1-.1.2 0 1.5-.1 2.9 0 4.4.1 2.1 1.6 3.5 3.7 3.5h2c2.1 0 3.7-1.5 3.7-3.7V2.1c0-.1 0-.2-.1-.4h-1.6v.7h.1zm22.1 4.4c1-.7 1.4-2 1.1-3.1-.4-1.2-1.4-1.9-2.7-1.9H36.4v8.1c.6 0 1.1.1 1.7 0V7.6 5.4 3.2h4.6c.5 0 1 .5 1 1v.5c0 .7-.5 1.1-1.1 1.1h-2.5c-.3.5-.6.9-1 1.4H42c.6.9 1.1 1.8 1.7 2.6h2c-.7-1-1.3-1.9-2-2.9.4 0 .5 0 .6-.1zm12.8-1.4c0-1.7-1.3-3.6-3.6-3.7h-3.1c-1.9 0-3.5 1.6-3.5 3.5v1.2c.1 1.7 1.2 3.1 2.9 3.4.6.1 1.2.1 1.6.1.5-.6 1-1 1.4-1.4h-2.3c-1-.1-1.8-.8-1.8-1.9V5.1c.1-1.2 1.1-1.9 2-1.9h3c1 0 1.7.6 1.9 1.6.1.6.1 1.3 0 1.9 0 .2-.1.4-.2.7-.4-.3-.8-.5-1.1-.7-.2-.2-.5-.2-.8-.2h-2.4c1.9 1.2 3.7 2.3 5.5 3.4h2.7v-.1c-.9-.5-1.7-1.1-2.6-1.6.4-.9.4-1.8.4-2.8zM14.6 9.9h-3.1C9.4 8.6 7.3 7.3 5.1 6v-.1H8c.2 0 .4.1.6.2.6.4 1.3.8 2 1.2.1-.3.1-.6.1-.8V3.4c0-1.2-.9-2-2-2h-5c-1.1 0-1.9.7-2 1.8v3.6c0 .9.7 1.5 1.6 1.7H8c-.6.5-1 1-1.5 1.4-1.1 0-2.2.1-3.2 0C1.5 9.8 0 8.2 0 6.3V3.5C0 1.5 1.6 0 3.5 0h5.3c2 0 3.5 1.6 3.5 3.5v2.9c0 .6-.2 1.2-.5 1.8 1.1.5 1.9 1.1 2.8 1.7 0-.1 0 0 0 0z"/></svg><svg viewBox="0 0 138.09 34.25" id="rockshox" xmlns="http://www.w3.org/2000/svg"><path d="M62.09 17.09s1.39-1.53 2.62-2.83c1.59-1.72 2.16-3.04 2.16-5.76 0-2.7-.01-7.98-.01-7.98h-4.98s.01 5.22.01 7c0 2.66-.66 2.85-1.75 4.09-.82.92-1.45 1.54-1.45 1.54-.18.21-.35.4-.51.57V.53H53.2v33.13h4.98V20.41l.51.57 1.45 1.59c1.09 1.25 1.75 1.43 1.75 4.1v7h4.98s.01-5.28.01-7.99c0-2.7-.57-4.03-2.17-5.75l-2.62-2.84zm15.28-3.9c-.96-1.03-1.43-1.34-1.43-3.17V7.06c0-.94.7-1.7 1.59-1.7h.51c.87.01 1.6.77 1.6 1.71v5.75h4.98V7.08c0-3.9-2.95-7.04-6.57-7.04h-.51V.02c-3.64 0-6.57 3.15-6.57 7.05 0 0-.01.88-.01 3.51 0 2.62.55 3.84 1.74 5.15l5.51 5.36c.97 1.03 1.43 1.34 1.43 3.17 0 1.44.01 2.95.01 2.95-.01.94-.72 1.71-1.6 1.72h-.51c-.87-.02-1.6-.78-1.6-1.72l.01-5.74h-4.98v5.74c0 3.89 2.94 7.03 6.57 7.03h.51v.01h.01c3.63 0 6.56-3.15 6.56-7.04 0 0 .01-.88.01-3.5 0-2.63-.55-3.84-1.73-5.15l-5.53-5.37zM44.15 23.23v3.96c0 .94-.71 1.71-1.6 1.71h-.51c-.88 0-1.6-.77-1.6-1.71V7.04c0-.93.72-1.7 1.6-1.71h.51c.88.01 1.6.78 1.6 1.71v5.75h4.98l-.01-5.74C49.13 3.16 46.18.01 42.55 0h-.52c-3.63.01-6.57 3.15-6.57 7.05l-.01 20.14c.01 3.89 2.95 7.05 6.58 7.04v-.01h.51v.01c3.63.01 6.58-3.15 6.58-7.04v-3.95l-4.97-.01zm70.98 3.96c0 .94-.72 1.7-1.6 1.7h-.51c-.88 0-1.6-.76-1.6-1.7V7.04c0-.93.72-1.7 1.6-1.71h.51c.87.01 1.6.78 1.6 1.71v20.15zM113.54.01h-.52c-3.63 0-6.57 3.15-6.57 7.04l-.01 20.14c0 3.89 2.95 7.05 6.58 7.04v-.01h.51v.01c3.62.01 6.57-3.15 6.58-7.04V7.05c0-3.9-2.95-7.04-6.57-7.04zM26.42 27.19c0 .94-.72 1.7-1.6 1.7h-.51c-.88 0-1.6-.76-1.6-1.7V7.04c0-.93.72-1.7 1.6-1.71h.51c.87.01 1.6.78 1.6 1.71v20.15zM24.82.01h-.51c-3.62 0-6.57 3.15-6.56 7.04l-.01 20.14c.01 3.89 2.95 7.05 6.58 7.04v-.01h.51v.01c3.63.01 6.58-3.15 6.58-7.04l-.02-20.14c.01-3.9-2.94-7.04-6.57-7.04zm110.22 17.33l-.13-.12.13-.12s.86-.74 1.54-1.58c1.24-1.55 1.51-2.16 1.51-5.11 0-4.15-.01-9.86-.01-9.86l-4.98.01v9.69c0 1.16-.71 2.04-.96 2.42s-.63.67-.63.67l-.37.34-.38-.34s-.38-.3-.63-.67c-.24-.38-.96-1.26-.96-2.42V.56l-4.98-.01v9.86c0 2.95.27 3.56 1.51 5.11.67.84 1.53 1.58 1.53 1.58l.13.12-.13.12-1.53 1.6c-1.24 1.54-1.51 2.15-1.51 5.1v9.85l4.97-.01s.01-8.53.01-9.7.72-2.03.96-2.41l.63-.66.38-.35.37.35.63.66c.25.38.96 1.25.96 2.41v9.7l4.97.01v-9.85c0-2.95-.25-3.56-1.5-5.1l-1.53-1.6zm-37.65-2.89h-3.71V.56H88.7v33.1h4.98V19.78l3.71-.01-.01 13.89h4.98l.01-33.1h-4.98v13.89zM8.67 12.89c0 .94-.71 1.7-1.59 1.7h-2.1V5.72h2.1c.88 0 1.59.76 1.59 1.71v5.46zm2.72 4.19c1.39-1.29 2.26-3.18 2.26-5.31V7.56c0-3.88-2.94-7.03-6.57-7.03H0l.02 33.12 4.96.01V19.85h2.1c.89 0 1.6.77 1.59 1.71l.02 12.1h4.98l-.01-11.26c0-2.13-.87-4.04-2.27-5.32z"/></svg><svg viewBox="0 0 489.713 489.713" id="search" xmlns="http://www.w3.org/2000/svg"><path d="M483.4 454.444l-121.3-121.4c28.7-35.2 46-80 46-128.9 0-112.5-91.5-204.1-204.1-204.1S0 91.644 0 204.144s91.5 204 204.1 204c48.8 0 93.7-17.3 128.9-46l121.3 121.3c8.3 8.3 20.9 8.3 29.2 0s8.3-20.7-.1-29zm-442.7-250.3c0-90.1 73.2-163.3 163.3-163.3s163.4 73.3 163.4 163.4-73.3 163.4-163.4 163.4-163.3-73.4-163.3-163.5z"/></svg><svg viewBox="0 0 116 15" id="sram" xmlns="http://www.w3.org/2000/svg"><path d="M113.8 13.1v-.6h.4c.2 0 .4 0 .4.3s-.2.3-.4.3h-.4zm0 .3h.3l.5.8h.3l-.5-.8c.3 0 .5-.2.5-.5 0-.4-.2-.5-.7-.5h-.7v1.9h.3v-.9zm.3 1.5c.9 0 1.6-.7 1.6-1.6 0-.9-.7-1.6-1.6-1.6s-1.6.7-1.6 1.6.8 1.6 1.6 1.6zm-1.3-1.7c0-.8.6-1.4 1.3-1.4.7 0 1.3.6 1.3 1.4 0 .8-.6 1.4-1.3 1.4s-1.3-.6-1.3-1.4zm-10.4 1.7l2.9-11.4h-4.9l-2.8 11.4h-7.8l2.9-11.4h-4.9l-3 11.4h-8.1L80.6 0s26.1-.1 28.9 0c1.7 0 4.1 1.7 3.3 5.1-1 4-1.7 7.4-2.3 9.8h-8.1zM66.8 6.8h-6.2l.9-3.6h6.1l-.8 3.6zM58.7 0c-1.3 0-4-.2-5.4 4.2-.7 2.3-2.9 10.7-2.9 10.7h3.9c1.8 0 3.7.1 4.3-1.1.5-1.1 1.2-3.9 1.2-3.9h6.4l-1.3 5H73C76.7.7 76.9 0 76.9 0H58.7zM11.4 3.2L10.7 6h13.1l-1.2 4.4c-.8 3.1-2.5 4.5-5.9 4.5H0l.8-3.1h13.4l.8-3.2H1.6L2 7c.2-.7.4-1.4.6-2.2C3.2 2.6 4.2.3 7.9.1h17.4l-.9 3.1h-13zm29.7 3.6h-6.2l1-3.6H42l-.9 3.6zM46.3 0H33c-4.7 0-5.3 3.8-5.5 4.2-.2.5-2.1 8.2-2.8 10.7h8.1l1.6-6c.2.2 3.3 4.1 4.3 5.2.8.9 1.4.8 4.4.8H48l-4.5-5.4h5c.3-1.5.8-3.2 1.2-4.8C50.4 2 48.3 0 46.3 0z"/></svg><svg viewBox="0 0 67.6 6.3" id="zipp" xmlns="http://www.w3.org/2000/svg"><path d="M24.8 1.2c-.4.4-.9.8-1.4 1.3-.8.8-1.6 1.5-2.4 2.3-.2.2-.5.4-.9.5-.1.1-.4.1-.6.2-.3.1-.7.1-1 .1-.1.1-.2.2-.3.2L18 6c-.1.1-.2.1-.2.3h8.8c.3-.2.5-.5.8-.7h-.2c-.2 0-.5 0-.7-.1-.1 0-.2 0-.2-.1s.1-.2.1-.3l.8-.8c1-.9 2-1.9 3-2.8.4-.3.8-.5 1.2-.6.4-.1.8-.1 1.2-.2.2-.2.5-.5.8-.7h-8.8c-.4.3-.6.5-.9.8h.2c.2 0 .5 0 .7.1.1 0 .2 0 .3.1 0 .1 0 .2-.1.2zm13.4 1.7c.5-.5 1-1 1.5-1.4.1-.1.1-.1.2-.1.6-.1 1.2-.2 1.8-.2.9-.1 1.8-.1 2.8-.2H47c-3 .8-6.1 1.5-9.1 2.3.1-.2.2-.3.3-.4zm-.7.8h2.9c.9 0 1.9 0 2.8-.1.8 0 1.6-.1 2.4-.2.8-.1 1.6-.3 2.3-.5.6-.2 1.1-.4 1.6-.7.2-.2.4-.3.6-.6.2-.3.1-.6-.2-.9-.1-.1-.3-.2-.5-.2-.5-.2-1.1-.2-1.6-.3-.9-.1-1.8-.1-2.6-.1H34.3l-.8.8h.8c.1 0 .1 0 .2.1 0 .1-.1.2-.2.2-.5.4-.9.9-1.4 1.3-.8.8-1.6 1.5-2.5 2.3-.3.3-.7.5-1.2.6-.2.1-.5.1-.8.2-.1 0-.1 0-.2.1l-.3.3c-.1.1-.2.2-.4.3h8.9c.3-.2.5-.5.8-.8h-1c-.1 0-.3-.1-.4-.1-.1 0-.1-.1 0-.2 0 0 0-.1.1-.1l.4-.4c.4-.3.7-.7 1.1-1.1l.1.1zm18.9-1.3c.3-.3.7-.6 1-.9.1-.1.2-.1.3-.1.9-.1 1.7-.2 2.6-.3 1.4-.1 2.9-.1 4.3-.1h.1c-3 .8-6 1.5-9.1 2.3.2-.4.5-.6.8-.9zm-4.5-1.3l-.2.2c-.8.8-1.6 1.5-2.5 2.3-.5.4-1 .9-1.4 1.3-.3.3-.6.4-1 .5s-.7.2-1.1.2c-.2.2-.5.5-.8.7h8.9c.1-.1.3-.2.4-.4.1-.1.3-.2.4-.4h-.9c-.1 0-.3 0-.4-.1-.1 0-.2 0-.2-.2v-.1l1.5-1.5h3.7c1 0 2 0 3-.1.9-.1 1.9-.2 2.8-.4.7-.1 1.4-.4 2.1-.7.4-.2.7-.3 1-.6.1-.1.2-.3.3-.4.1-.2.1-.5-.1-.7-.1-.1-.2-.1-.3-.2-.2-.1-.4-.2-.7-.2-.6-.2-1.2-.2-1.8-.2-.8 0-1.5-.1-2.3-.1H51.5l-.8.8H51.6c.1 0 .1 0 .2.1s.1.2.1.2zM0 6.3V4.8c5.3-1.3 10.7-2.7 16-4h-2.6c-.7 0-1.5.1-2.2.1-.5 0-.9.1-1.4.1-.6.2-1.4.4-2.1.6l-2.1.6H3.5c.1 0 .1-.1.2-.1 1-.6 2.2-1.3 3.3-2 .1-.1.2-.1.3-.1h16.4l-.1.1c-.6.6-1.3 1.1-1.9 1.7-.1.1-.2.1-.2.1-1 .2-2 .5-3 .7-1.3.3-2.5.6-3.8.9-1.9.6-3.8 1.1-5.7 1.5-.6.2-1.3.3-2 .5h-.1H10.2c.9 0 1.7-.1 2.6-.2 1.6-.2 3.1-.5 4.6-1 .4-.1.7-.3 1.1-.4.1 0 .2-.1.3-.1h2c-.1 0-.1.1-.2.1-1.1.6-2.3 1.3-3.4 1.9-.2.1-.3.2-.5.3-.1 0-.1 0-.2.1H.4l-.4.1z"/></svg></svg>