<?xml version="1.0" encoding="utf-8"?><svg width="30" height="24" fill="none" xmlns="http://www.w3.org/2000/svg" viewBox="0 0 30 24"><path d="M27.363.574H2.637A2.641 2.641 0 000 3.211v17.578a2.641 2.641 0 002.637 2.637h24.726A2.641 2.641 0 0030 20.789V3.211A2.641 2.641 0 0027.363.574zM27 2.332L15.056 14.275 3.009 2.332H27zM1.758 20.425V3.567l8.465 8.393-8.465 8.465zM3 21.668l8.47-8.47 2.969 2.942c.343.34.898.34 1.24-.003l2.894-2.894L27 21.668H3.001zm25.241-1.243L19.817 12l8.425-8.425v16.85z" fill="#475D7E"/></svg>