<svg xmlns="http://www.w3.org/2000/svg" width="120" xmlns:xlink="http://www.w3.org/1999/xlink" viewBox="0 0 59.3 10" fill="#f30134">
    <path d="M27.2,7.3h2c0.3-0.5,0.6-0.9,0.9-1.4h-2c0.5-0.8,1-1.6,1.5-2.4c1.4,2.2,2.8,4.4,4.1,6.5c0.3,0,0.7,0,1,0 s0.6,0,1,0c-1.9-2.8-3.7-5.5-5.5-8.1H29c-0.8,1-5.3,7.7-5.4,8.1h1.9C26.1,9,26.7,8.2,27.2,7.3z M22.2,2.4c0,1.3,0,2.6,0,3.9 s-0.8,2.1-2.1,2.2c-0.6,0-1.3,0-1.9,0c-0.3,0-0.6,0-0.9-0.2c-0.8-0.3-1.2-1-1.2-1.8c0-1.4,0-2.7,0-4.1V1.8c-0.6,0-1.1-0.1-1.6,0 c0,0.1-0.1,0.1-0.1,0.2c0,1.5-0.1,2.9,0,4.4c0.1,2.1,1.6,3.5,3.7,3.5c0.7,0,1.4,0,2,0c2.1,0,3.7-1.5,3.7-3.7c0-1.4,0-2.7,0-4.1 c0-0.1,0-0.2-0.1-0.4h-1.6v0.7H22.2z M44.3,6.8c1-0.7,1.4-2,1.1-3.1C45,2.5,44,1.8,42.7,1.8c-2,0-3.9,0-5.9,0c-0.1,0-0.2,0-0.4,0 v8.1c0.6,0,1.1,0.1,1.7,0V7.6c0-0.7,0-1.5,0-2.2s0-1.5,0-2.2c1.6,0,3.1,0,4.6,0c0.5,0,1,0.5,1,1c0,0.2,0,0.3,0,0.5 c0,0.7-0.5,1.1-1.1,1.1c-0.5,0-1,0-1.5,0c-0.3,0-0.6,0-1,0c-0.3,0.5-0.6,0.9-1,1.4H42c0.6,0.9,1.1,1.8,1.7,2.6h2 c-0.7-1-1.3-1.9-2-2.9C44.1,6.9,44.2,6.9,44.3,6.8z M57.1,5.4c0-1.7-1.3-3.6-3.6-3.7c-1,0-2.1,0-3.1,0c-1.9,0-3.5,1.6-3.5,3.5 c0,0.4,0,0.8,0,1.2c0.1,1.7,1.2,3.1,2.9,3.4c0.6,0.1,1.2,0.1,1.6,0.1c0.5-0.6,1-1,1.4-1.4c-0.2,0-0.4,0-0.5,0c-0.6,0-1.2,0-1.8,0 c-1-0.1-1.8-0.8-1.8-1.9c0-0.5,0-1,0-1.5c0.1-1.2,1.1-1.9,2-1.9c1,0,2,0,3,0s1.7,0.6,1.9,1.6c0.1,0.6,0.1,1.3,0,1.9 c0,0.2-0.1,0.4-0.2,0.7c-0.4-0.3-0.8-0.5-1.1-0.7c-0.2-0.2-0.5-0.2-0.8-0.2c-0.7,0-1.3,0-2,0c-0.1,0-0.2,0-0.4,0 c1.9,1.2,3.7,2.3,5.5,3.4h2.7V9.8c-0.9-0.5-1.7-1.1-2.6-1.6C57.1,7.3,57.1,6.4,57.1,5.4z M14.6,9.9h-3.1C9.4,8.6,7.3,7.3,5.1,6V5.9 c1,0,1.9,0,2.9,0c0.2,0,0.4,0.1,0.6,0.2c0.6,0.4,1.3,0.8,2,1.2c0.1-0.3,0.1-0.6,0.1-0.8c0-1,0-2,0-3.1c0-1.2-0.9-2-2-2 c-1.6,0-3.3,0-5,0c-1.1,0-1.9,0.7-2,1.8c0,1.2,0,2.4,0,3.6c0,0.9,0.7,1.5,1.6,1.7c0.2,0,0.5,0,0.8,0c1.1,0,2.1,0,3.2,0H8 C7.4,9,7,9.5,6.5,9.9c-1.1,0-2.2,0.1-3.2,0C1.5,9.8,0,8.2,0,6.3c0-0.9,0-1.8,0-2.8C0,1.5,1.6,0,3.5,0c1.8,0,3.6,0,5.3,0 c2,0,3.5,1.6,3.5,3.5c0,1,0,1.9,0,2.9c0,0.6-0.2,1.2-0.5,1.8C12.9,8.7,13.7,9.3,14.6,9.9C14.6,9.8,14.6,9.9,14.6,9.9z"></path>
</svg>
