<svg xmlns="http://www.w3.org/2000/svg" width="100" height="30" xmlns:xlink="http://www.w3.org/1999/xlink" viewBox="0 0 138.09 34.25">
    <path d="M62.09,17.09c0,0,1.39-1.53,2.62-2.83c1.59-1.72,2.16-3.04,2.16-5.76c0-2.7-0.01-7.98-0.01-7.98h-4.98 c0,0,0.01,5.22,0.01,7c0,2.66-0.66,2.85-1.75,4.09c-0.82,0.92-1.45,1.54-1.45,1.54c-0.18,0.21-0.35,0.4-0.51,0.57V0.53H53.2v33.13 h4.98V20.41l0.51,0.57l1.45,1.59c1.09,1.25,1.75,1.43,1.75,4.1v7h4.98c0,0,0.01-5.28,0.01-7.99c0-2.7-0.57-4.03-2.17-5.75 L62.09,17.09z M77.37,13.19c-0.96-1.03-1.43-1.34-1.43-3.17V7.06c0-0.94,0.7-1.7,1.59-1.7h0.51c0.87,0.01,1.6,0.77,1.6,1.71v5.75 h4.98V7.08c0-3.9-2.95-7.04-6.57-7.04h-0.51V0.02c-3.64,0-6.57,3.15-6.57,7.05c0,0-0.01,0.88-0.01,3.51c0,2.62,0.55,3.84,1.74,5.15 l5.51,5.36c0.97,1.03,1.43,1.34,1.43,3.17c0,1.44,0.01,2.95,0.01,2.95c-0.01,0.94-0.72,1.71-1.6,1.72h-0.51 c-0.87-0.02-1.6-0.78-1.6-1.72l0.01-5.74h-4.98v5.74c0,3.89,2.94,7.03,6.57,7.03h0.51v0.01h0.01c3.63,0,6.56-3.15,6.56-7.04 c0,0,0.01-0.88,0.01-3.5c0-2.63-0.55-3.84-1.73-5.15L77.37,13.19z M44.15,23.23v3.96c0,0.94-0.71,1.71-1.6,1.71h-0.51 c-0.88,0-1.6-0.77-1.6-1.71V7.04c0-0.93,0.72-1.7,1.6-1.71h0.51c0.88,0.01,1.6,0.78,1.6,1.71v5.75h4.98l-0.01-5.74 c0.01-3.89-2.94-7.04-6.57-7.05h-0.01h-0.51c-3.63,0.01-6.57,3.15-6.57,7.05l-0.01,20.14c0.01,3.89,2.95,7.05,6.58,7.04v-0.01h0.51 v0.01c3.63,0.01,6.58-3.15,6.58-7.04v-3.95L44.15,23.23L44.15,23.23z M115.13,27.19c0,0.94-0.72,1.7-1.6,1.7h-0.51 c-0.88,0-1.6-0.76-1.6-1.7V7.04c0-0.93,0.72-1.7,1.6-1.71h0.51c0.87,0.01,1.6,0.78,1.6,1.71V27.19z M113.54,0.01L113.54,0.01h-0.52 c-3.63,0-6.57,3.15-6.57,7.04l-0.01,20.14c0,3.89,2.95,7.05,6.58,7.04v-0.01h0.51v0.01c3.62,0.01,6.57-3.15,6.58-7.04V7.05 C120.11,3.15,117.16,0.01,113.54,0.01L113.54,0.01z M26.42,27.19c0,0.94-0.72,1.7-1.6,1.7h-0.51c-0.88,0-1.6-0.76-1.6-1.7V7.04 c0-0.93,0.72-1.7,1.6-1.71h0.51c0.87,0.01,1.6,0.78,1.6,1.71V27.19z M24.82,0.01L24.82,0.01h-0.51c-3.62,0-6.57,3.15-6.56,7.04 l-0.01,20.14c0.01,3.89,2.95,7.05,6.58,7.04v-0.01h0.51v0.01c3.63,0.01,6.58-3.15,6.58-7.04L31.39,7.05 C31.4,3.15,28.45,0.01,24.82,0.01L24.82,0.01z M135.04,17.34l-0.13-0.12l0.13-0.12c0,0,0.86-0.74,1.54-1.58 c1.24-1.55,1.51-2.16,1.51-5.11c0-4.15-0.01-9.86-0.01-9.86l-4.98,0.01v9.69c0,1.16-0.71,2.04-0.96,2.42s-0.63,0.67-0.63,0.67 l-0.37,0.34l-0.38-0.34c0,0-0.38-0.3-0.63-0.67c-0.24-0.38-0.96-1.26-0.96-2.42V0.56l-4.98-0.01v9.86c0,2.95,0.27,3.56,1.51,5.11 c0.67,0.84,1.53,1.58,1.53,1.58l0.13,0.12l-0.13,0.12l-1.53,1.6c-1.24,1.54-1.51,2.15-1.51,5.1v9.85l4.97-0.01 c0,0,0.01-8.53,0.01-9.7s0.72-2.03,0.96-2.41l0.63-0.66l0.38-0.35l0.37,0.35l0.63,0.66c0.25,0.38,0.96,1.25,0.96,2.41s0,9.7,0,9.7 l4.97,0.01v-9.85c0-2.95-0.25-3.56-1.5-5.1L135.04,17.34z M97.39,14.45h-3.71V0.56H88.7v33.1h4.98V19.78l3.71-0.01l-0.01,13.89h4.98 l0.01-33.1h-4.98V14.45z M8.67,12.89c0,0.94-0.71,1.7-1.59,1.7h-2.1V5.72h2.1c0.88,0,1.59,0.76,1.59,1.71V12.89z M11.39,17.08 c1.39-1.29,2.26-3.18,2.26-5.31V7.56c0-3.88-2.94-7.03-6.57-7.03H0l0.02,33.12l4.96,0.01V19.85h2.1c0.89,0,1.6,0.77,1.59,1.71 l0.02,12.1h4.98L13.66,22.4C13.66,20.27,12.79,18.36,11.39,17.08L11.39,17.08z"></path>
</svg>
