<svg xmlns="http://www.w3.org/2000/svg" width="100" height="30" xmlns:xlink="http://www.w3.org/1999/xlink" viewBox="0 0 116 15">
  <path d="M113.8,13.1v-0.6h0.4c0.2,0,0.4,0,0.4,0.3s-0.2,0.3-0.4,0.3H113.8z M113.8,13.4h0.3l0.5,0.8h0.3l-0.5-0.8 c0.3,0,0.5-0.2,0.5-0.5c0-0.4-0.2-0.5-0.7-0.5h-0.7v1.9h0.3L113.8,13.4L113.8,13.4z M114.1,14.9c0.9,0,1.6-0.7,1.6-1.6 c0-0.9-0.7-1.6-1.6-1.6s-1.6,0.7-1.6,1.6S113.3,14.9,114.1,14.9z M112.8,13.2c0-0.8,0.6-1.4,1.3-1.4c0.7,0,1.3,0.6,1.3,1.4 c0,0.8-0.6,1.4-1.3,1.4S112.8,14,112.8,13.2z M102.4,14.9l2.9-11.4h-4.9l-2.8,11.4h-7.8l2.9-11.4h-4.9l-3,11.4h-8.1L80.6,0 c0,0,26.1-0.1,28.9,0c1.7,0,4.1,1.7,3.3,5.1c-1,4-1.7,7.4-2.3,9.8C107.7,14.9,106.8,14.9,102.4,14.9z M66.8,6.8h-6.2l0.9-3.6h6.1 L66.8,6.8z M58.7,0c-1.3,0-4-0.2-5.4,4.2c-0.7,2.3-2.9,10.7-2.9,10.7s2.2,0,3.9,0c1.8,0,3.7,0.1,4.3-1.1c0.5-1.1,1.2-3.9,1.2-3.9 h6.4l-1.3,5H73C76.7,0.7,76.9,0,76.9,0S58.7,0,58.7,0z M11.4,3.2L10.7,6h13.1c0,0-0.6,2.2-1.2,4.4c-0.8,3.1-2.5,4.5-5.9,4.5H0 l0.8-3.1h13.4L15,8.6H1.6c0,0,0.1-0.4,0.4-1.6c0.2-0.7,0.4-1.4,0.6-2.2c0.6-2.2,1.6-4.5,5.3-4.7h17.4l-0.9,3.1H11.4z M41.1,6.8h-6.2 l1-3.6H42L41.1,6.8z M46.3,0H33c-4.7,0-5.3,3.8-5.5,4.2c-0.2,0.5-2.1,8.2-2.8,10.7h8.1l1.6-6c0.2,0.2,3.3,4.1,4.3,5.2 c0.8,0.9,1.4,0.8,4.4,0.8H48l-4.5-5.4h5c0.3-1.5,0.8-3.2,1.2-4.8C50.4,2,48.3,0,46.3,0z"></path>
</svg>
