<svg xmlns="http://www.w3.org/2000/svg" width="100" xmlns:xlink="http://www.w3.org/1999/xlink" viewBox="0 0 67.6 6.3">
    <path d="M24.8,1.2c-0.4,0.4-0.9,0.8-1.4,1.3C22.6,3.3,21.8,4,21,4.8c-0.2,0.2-0.5,0.4-0.9,0.5 c-0.1,0.1-0.4,0.1-0.6,0.2c-0.3,0.1-0.7,0.1-1,0.1c-0.1,0.1-0.2,0.2-0.3,0.2C18.1,5.9,18,6,18,6c-0.1,0.1-0.2,0.1-0.2,0.3h8.8 c0.3-0.2,0.5-0.5,0.8-0.7c-0.1,0-0.1,0-0.2,0c-0.2,0-0.5,0-0.7-0.1c-0.1,0-0.2,0-0.2-0.1s0.1-0.2,0.1-0.3c0.3-0.3,0.5-0.5,0.8-0.8 c1-0.9,2-1.9,3-2.8C30.6,1.2,31,1,31.4,0.9c0.4-0.1,0.8-0.1,1.2-0.2c0.2-0.2,0.5-0.5,0.8-0.7h-8.8c-0.4,0.3-0.6,0.5-0.9,0.8 c0.1,0,0.2,0,0.2,0c0.2,0,0.5,0,0.7,0.1c0.1,0,0.2,0,0.3,0.1C24.9,1.1,24.9,1.2,24.8,1.2z M38.2,2.9c0.5-0.5,1-1,1.5-1.4 c0.1-0.1,0.1-0.1,0.2-0.1c0.6-0.1,1.2-0.2,1.8-0.2c0.9-0.1,1.8-0.1,2.8-0.2c0.8,0,1.6,0,2.4,0c0,0,0,0,0.1,0c-3,0.8-6.1,1.5-9.1,2.3 l0,0C38,3.1,38.1,3,38.2,2.9z M37.5,3.7c1,0,1.9,0,2.9,0c0.9,0,1.9,0,2.8-0.1c0.8,0,1.6-0.1,2.4-0.2c0.8-0.1,1.6-0.3,2.3-0.5 c0.6-0.2,1.1-0.4,1.6-0.7c0.2-0.2,0.4-0.3,0.6-0.6c0.2-0.3,0.1-0.6-0.2-0.9c-0.1-0.1-0.3-0.2-0.5-0.2c-0.5-0.2-1.1-0.2-1.6-0.3 c-0.9-0.1-1.8-0.1-2.6-0.1c-3.6,0-7.1,0-10.7,0h-0.2c-0.3,0.3-0.5,0.5-0.8,0.8c0.1,0,0.2,0,0.2,0c0.2,0,0.4,0,0.6,0 c0.1,0,0.1,0,0.2,0.1c0,0.1-0.1,0.2-0.2,0.2c-0.5,0.4-0.9,0.9-1.4,1.3c-0.8,0.8-1.6,1.5-2.5,2.3c-0.3,0.3-0.7,0.5-1.2,0.6 c-0.2,0.1-0.5,0.1-0.8,0.2c-0.1,0-0.1,0-0.2,0.1S28,5.9,27.9,6c-0.1,0.1-0.2,0.2-0.4,0.3h8.9c0.3-0.2,0.5-0.5,0.8-0.8 c-0.1,0-0.1,0-0.2,0c-0.3,0-0.6,0-0.8,0c-0.1,0-0.3-0.1-0.4-0.1c-0.1,0-0.1-0.1,0-0.2c0,0,0-0.1,0.1-0.1C36,5,36.2,4.8,36.3,4.7 C36.7,4.4,37,4,37.4,3.6L37.5,3.7L37.5,3.7z M56.4,2.4c0.3-0.3,0.7-0.6,1-0.9c0.1-0.1,0.2-0.1,0.3-0.1c0.9-0.1,1.7-0.2,2.6-0.3 C61.7,1,63.2,1,64.6,1c0,0,0,0,0.1,0c-3,0.8-6,1.5-9.1,2.3l0,0C55.8,2.9,56.1,2.7,56.4,2.4z M51.9,1.1c-0.1,0.1-0.1,0.1-0.2,0.2 c-0.8,0.8-1.6,1.5-2.5,2.3c-0.5,0.4-1,0.9-1.4,1.3c-0.3,0.3-0.6,0.4-1,0.5s-0.7,0.2-1.1,0.2c-0.2,0.2-0.5,0.5-0.8,0.7h8.9 c0.1-0.1,0.3-0.2,0.4-0.4c0.1-0.1,0.3-0.2,0.4-0.4c-0.3,0-0.6,0-0.9,0c-0.1,0-0.3,0-0.4-0.1c-0.1,0-0.2,0-0.2-0.2V5.1 c0.5-0.5,1-1,1.5-1.5h0.1c1.2,0,2.4,0,3.6,0c1,0,2,0,3-0.1c0.9-0.1,1.9-0.2,2.8-0.4c0.7-0.1,1.4-0.4,2.1-0.7c0.4-0.2,0.7-0.3,1-0.6 c0.1-0.1,0.2-0.3,0.3-0.4c0.1-0.2,0.1-0.5-0.1-0.7c-0.1-0.1-0.2-0.1-0.3-0.2c-0.2-0.1-0.4-0.2-0.7-0.2c-0.6-0.2-1.2-0.2-1.8-0.2 c-0.8,0-1.5-0.1-2.3-0.1c-3.5,0-7.1,0-10.6,0h-0.2c-0.3,0.3-0.5,0.5-0.8,0.8c0.1,0,0.1,0,0.2,0c0.2,0,0.4,0,0.7,0 c0.1,0,0.1,0,0.2,0.1C51.9,1,51.9,1.1,51.9,1.1z M0,6.3c0-0.5,0-1,0-1.5c5.3-1.3,10.7-2.7,16-4l0,0c-0.1,0-0.1,0-0.2,0 c-0.8,0-1.6,0-2.4,0c-0.7,0-1.5,0.1-2.2,0.1C10.7,0.9,10.3,1,9.8,1C9.2,1.2,8.4,1.4,7.7,1.6S6.3,2,5.6,2.2c-0.1,0-0.2,0-0.3,0 c-0.5,0-1,0-1.5,0c-0.1,0-0.2,0-0.3,0c0.1,0,0.1-0.1,0.2-0.1c1-0.6,2.2-1.3,3.3-2C7.1,0,7.2,0,7.3,0c1.4,0,2.8,0,4.1,0h12.1h0.2l0,0 l-0.1,0.1c-0.6,0.6-1.3,1.1-1.9,1.7c-0.1,0.1-0.2,0.1-0.2,0.1c-1,0.2-2,0.5-3,0.7c-1.3,0.3-2.5,0.6-3.8,0.9C12.8,4.1,10.9,4.6,9,5 C8.4,5.2,7.7,5.3,7,5.5H6.9c0.2,0,0.4,0,0.6,0c0.9,0,1.8,0,2.7,0s1.7-0.1,2.6-0.2c1.6-0.2,3.1-0.5,4.6-1c0.4-0.1,0.7-0.3,1.1-0.4 c0.1,0,0.2-0.1,0.3-0.1c0.5,0,0.9,0,1.4,0c0.2,0,0.4,0,0.6,0c-0.1,0-0.1,0.1-0.2,0.1c-1.1,0.6-2.3,1.3-3.4,1.9 C17,5.9,16.9,6,16.7,6.1c-0.1,0-0.1,0-0.2,0.1h-0.1h-16L0,6.3L0,6.3z"></path>
</svg>
